<svg width="313" height="556" viewBox="0 0 313 556" fill="none" xmlns="http://www.w3.org/2000/svg">
<path d="M156.5 311.5C242.104 311.5 311.5 242.104 311.5 156.5C311.5 70.8959 242.104 1.5 156.5 1.5C70.8959 1.5 1.5 70.8959 1.5 156.5C1.5 242.104 70.8959 311.5 156.5 311.5Z" stroke="white" stroke-width="3" stroke-miterlimit="10"/>
<path d="M83.0562 156.702C87.2991 156.702 91.4512 159.879 91.4512 164.099C91.4512 169.204 87.889 172.585 83.3285 172.585H75.4553C75.4553 172.585 76.5671 171.927 76.5671 170.52V158.722C76.5671 157.383 75.4553 156.702 75.4553 156.702H83.0562ZM83.3285 170.906C86.9814 170.906 89.7268 167.888 89.7268 164.621C89.7268 161.24 86.9814 158.359 83.3285 158.359H79.9932C79.0629 158.359 78.3142 159.107 78.3142 160.038V169.295C78.3142 170.18 79.0402 170.906 79.9251 170.906H83.3285ZM95.7067 158.722V170.543C95.7067 171.904 96.8184 172.562 96.8184 172.562H92.8478C92.8478 172.562 93.9596 171.904 93.9596 170.543V158.722C93.9596 157.36 92.8478 156.68 92.8478 156.68H96.8184C96.8184 156.68 95.7067 157.201 95.7067 158.722ZM115.274 156.702V156.68H116.567C116.567 156.68 115.16 157.292 114.321 159.062L109.602 170.906L108.944 172.562H104.882L104.224 170.906L99.5048 159.039C98.6653 157.269 97.2813 156.702 97.2813 156.702H98.5745V156.68H100.458V156.702H102.795C102.795 156.702 101.002 157.973 101.297 158.812L106.107 170.906H107.741L112.528 158.835C112.869 158.018 111.031 156.702 111.031 156.702H113.391V156.68H115.274V156.702ZM128.57 170.906C129.364 170.906 131.111 167.888 131.111 167.888L130.158 172.585H117.089C117.089 172.585 118.201 171.904 118.201 170.497V158.722C118.201 157.496 117.089 156.702 117.089 156.702H129.614L130.566 160.945C130.566 160.945 128.819 158.359 128.003 158.359H121.559C120.674 158.359 119.948 159.062 119.948 159.97V163.668H125.235C126.097 163.668 126.914 162.579 126.914 162.579V166.459C126.914 166.459 126.142 165.324 125.235 165.324H119.948V169.317C119.948 170.202 120.651 170.906 121.536 170.906H128.57ZM145.603 169.522C146.465 170.656 147.826 171.7 149.256 171.7V172.562C147.373 172.562 145.194 171.7 144.037 170.202L140.815 166.05H135.302V170.543C135.302 171.904 136.414 172.562 136.414 172.562H132.443C132.443 172.562 133.555 171.904 133.555 170.543V158.926C133.555 157.406 132.443 156.68 132.443 156.68H142.767V156.702C145.308 156.702 147.373 158.744 147.373 161.285C147.373 164.122 145.376 165.982 142.903 166.028L145.603 169.522ZM135.302 159.947V164.394H142.131C143.697 164.394 145.263 163.464 145.535 162.102C145.943 159.947 144.423 158.359 142.358 158.359H136.913C136.028 158.359 135.302 159.085 135.302 159.947ZM151.862 161.195C151.862 164.666 164.364 163.622 164.364 168.387C164.364 170.747 162.005 172.812 157.172 172.812C152.271 172.812 149.775 170.747 149.775 166.254L151.726 166.459C151.726 170.429 154.177 171.155 157.172 171.155C160.757 171.155 162.617 170.316 162.617 168.387C162.617 165.324 150.115 166.436 150.115 161.195C150.115 158.835 151.726 156.498 157.081 156.498C162.594 156.498 164.205 159.72 164.205 161.989L162.231 161.762C162.231 159.221 160.326 158.109 157.081 158.109C153.768 158.109 151.862 159.085 151.862 161.195ZM168.738 158.722V170.543C168.738 171.904 169.849 172.562 169.849 172.562H165.879C165.879 172.562 166.99 171.904 166.99 170.543V158.722C166.99 157.36 165.879 156.68 165.879 156.68H169.849C169.849 156.68 168.738 157.201 168.738 158.722ZM178.821 156.702C183.063 156.702 187.216 159.879 187.216 164.099C187.216 169.204 183.653 172.585 179.093 172.585H171.22C171.22 172.585 172.331 171.927 172.331 170.52V158.722C172.331 157.383 171.22 156.702 171.22 156.702H178.821ZM179.093 170.906C182.746 170.906 185.491 167.888 185.491 164.621C185.491 161.24 182.746 158.359 179.093 158.359H175.758C174.827 158.359 174.079 159.107 174.079 160.038V169.295C174.079 170.18 174.805 170.906 175.689 170.906H179.093ZM205.53 172.562H204.236V172.585H202.353V172.562H199.993C199.993 172.562 201.831 171.246 201.491 170.429L200.107 166.912H191.667L190.26 170.452C189.965 171.269 191.757 172.562 191.757 172.562H189.42V172.585H187.537V172.562H186.244C186.244 172.562 187.628 171.972 188.467 170.225L193.187 158.359L193.845 156.702H197.906L198.564 158.359L203.283 170.202C204.123 171.972 205.53 172.562 205.53 172.562ZM192.325 165.256H199.449L196.704 158.359H195.07L192.325 165.256ZM213.674 156.702C217.917 156.702 222.069 159.879 222.069 164.099C222.069 169.204 218.507 172.585 213.946 172.585H206.073C206.073 172.585 207.185 171.927 207.185 170.52V158.722C207.185 157.383 206.073 156.702 206.073 156.702H213.674ZM213.946 170.906C217.599 170.906 220.345 167.888 220.345 164.621C220.345 161.24 217.599 158.359 213.946 158.359H210.611C209.681 158.359 208.932 159.107 208.932 160.038V169.295C208.932 170.18 209.658 170.906 210.543 170.906H213.946ZM234.992 170.906C235.786 170.906 237.533 167.888 237.533 167.888L236.58 172.585H223.511C223.511 172.585 224.623 171.904 224.623 170.497V158.722C224.623 157.496 223.511 156.702 223.511 156.702H236.036L236.989 160.945C236.989 160.945 235.242 158.359 234.425 158.359H227.981C227.096 158.359 226.37 159.062 226.37 159.97V163.668H231.657C232.519 163.668 233.336 162.579 233.336 162.579V166.459C233.336 166.459 232.564 165.324 231.657 165.324H226.37V169.317C226.37 170.202 227.073 170.906 227.958 170.906H234.992Z" fill="white"/>
<path d="M83.3042 157.14C87.5471 157.14 91.6993 160.317 91.6993 164.537C91.6993 169.642 88.137 173.023 83.5765 173.023H75.7034C75.7034 173.023 76.8151 172.365 76.8151 170.958V159.16C76.8151 157.821 75.7034 157.14 75.7034 157.14H83.3042ZM83.5765 171.344C87.2295 171.344 89.9749 168.326 89.9749 165.059C89.9749 161.678 87.2295 158.797 83.5765 158.797H80.2412C79.3109 158.797 78.5622 159.545 78.5622 160.476V169.733C78.5622 170.618 79.2883 171.344 80.1731 171.344H83.5765ZM95.9547 159.16V170.981C95.9547 172.342 97.0665 173 97.0665 173H93.0959C93.0959 173 94.2076 172.342 94.2076 170.981V159.16C94.2076 157.798 93.0959 157.118 93.0959 157.118H97.0665C97.0665 157.118 95.9547 157.639 95.9547 159.16ZM115.522 157.14V157.118H116.815C116.815 157.118 115.408 157.73 114.569 159.5L109.85 171.344L109.192 173H105.13L104.472 171.344L99.7529 159.477C98.9134 157.707 97.5293 157.14 97.5293 157.14H98.8226V157.118H100.706V157.14H103.043C103.043 157.14 101.25 158.411 101.545 159.25L106.355 171.344H107.989L112.776 159.273C113.117 158.456 111.279 157.14 111.279 157.14H113.639V157.118H115.522V157.14ZM128.818 171.344C129.612 171.344 131.359 168.326 131.359 168.326L130.406 173.023H117.337C117.337 173.023 118.449 172.342 118.449 170.935V159.16C118.449 157.934 117.337 157.14 117.337 157.14H129.862L130.815 161.383C130.815 161.383 129.067 158.797 128.251 158.797H121.807C120.922 158.797 120.196 159.5 120.196 160.407V164.106H125.483C126.345 164.106 127.162 163.017 127.162 163.017V166.897C127.162 166.897 126.39 165.762 125.483 165.762H120.196V169.755C120.196 170.64 120.899 171.344 121.784 171.344H128.818ZM145.851 169.96C146.713 171.094 148.074 172.138 149.504 172.138V173C147.621 173 145.443 172.138 144.285 170.64L141.064 166.488H135.55V170.981C135.55 172.342 136.662 173 136.662 173H132.691C132.691 173 133.803 172.342 133.803 170.981V159.364C133.803 157.844 132.691 157.118 132.691 157.118H143.015V157.14C145.556 157.14 147.621 159.182 147.621 161.723C147.621 164.56 145.624 166.42 143.151 166.466L145.851 169.96ZM135.55 160.385V164.832H142.379C143.945 164.832 145.511 163.902 145.783 162.54C146.191 160.385 144.671 158.797 142.606 158.797H137.161C136.276 158.797 135.55 159.523 135.55 160.385ZM152.11 161.633C152.11 165.104 164.612 164.06 164.612 168.825C164.612 171.185 162.253 173.25 157.42 173.25C152.519 173.25 150.023 171.185 150.023 166.692L151.974 166.897C151.974 170.867 154.425 171.593 157.42 171.593C161.005 171.593 162.865 170.754 162.865 168.825C162.865 165.762 150.363 166.874 150.363 161.633C150.363 159.273 151.974 156.936 157.329 156.936C162.842 156.936 164.453 160.158 164.453 162.427L162.479 162.2C162.479 159.659 160.574 158.547 157.329 158.547C154.016 158.547 152.11 159.523 152.11 161.633ZM168.986 159.16V170.981C168.986 172.342 170.097 173 170.097 173H166.127C166.127 173 167.239 172.342 167.239 170.981V159.16C167.239 157.798 166.127 157.118 166.127 157.118H170.097C170.097 157.118 168.986 157.639 168.986 159.16ZM179.069 157.14C183.312 157.14 187.464 160.317 187.464 164.537C187.464 169.642 183.901 173.023 179.341 173.023H171.468C171.468 173.023 172.58 172.365 172.58 170.958V159.16C172.58 157.821 171.468 157.14 171.468 157.14H179.069ZM179.341 171.344C182.994 171.344 185.739 168.326 185.739 165.059C185.739 161.678 182.994 158.797 179.341 158.797H176.006C175.075 158.797 174.327 159.545 174.327 160.476V169.733C174.327 170.618 175.053 171.344 175.938 171.344H179.341ZM205.778 173H204.484V173.023H202.601V173H200.242C200.242 173 202.079 171.684 201.739 170.867L200.355 167.35H191.915L190.508 170.89C190.213 171.707 192.005 173 192.005 173H189.668V173.023H187.785V173H186.492C186.492 173 187.876 172.41 188.715 170.663L193.435 158.797L194.093 157.14H198.154L198.812 158.797L203.531 170.64C204.371 172.41 205.778 173 205.778 173ZM192.573 165.694H199.697L196.952 158.797H195.318L192.573 165.694ZM213.922 157.14C218.165 157.14 222.317 160.317 222.317 164.537C222.317 169.642 218.755 173.023 214.195 173.023H206.321C206.321 173.023 207.433 172.365 207.433 170.958V159.16C207.433 157.821 206.321 157.14 206.321 157.14H213.922ZM214.195 171.344C217.847 171.344 220.593 168.326 220.593 165.059C220.593 161.678 217.847 158.797 214.195 158.797H210.859C209.929 158.797 209.18 159.545 209.18 160.476V169.733C209.18 170.618 209.906 171.344 210.791 171.344H214.195ZM235.24 171.344C236.034 171.344 237.781 168.326 237.781 168.326L236.828 173.023H223.759C223.759 173.023 224.871 172.342 224.871 170.935V159.16C224.871 157.934 223.759 157.14 223.759 157.14H236.284L237.237 161.383C237.237 161.383 235.49 158.797 234.673 158.797H228.229C227.344 158.797 226.618 159.5 226.618 160.407V164.106H231.905C232.767 164.106 233.584 163.017 233.584 163.017V166.897C233.584 166.897 232.812 165.762 231.905 165.762H226.618V169.755C226.618 170.64 227.321 171.344 228.206 171.344H235.24Z" fill="white"/>
<path d="M156.5 554.5C242.104 554.5 311.5 485.104 311.5 399.5C311.5 313.896 242.104 244.5 156.5 244.5C70.8959 244.5 1.5 313.896 1.5 399.5C1.5 485.104 70.8959 554.5 156.5 554.5Z" stroke="white" stroke-width="3" stroke-miterlimit="10"/>
<path d="M82.7842 415.562H81.491V415.585H79.6078V415.562H77.2481C77.2481 415.562 79.0859 414.246 78.7456 413.429L77.3615 409.912H68.9211L67.5144 413.452C67.2194 414.269 69.0119 415.562 69.0119 415.562H66.6749V415.585H64.7917V415.562H63.4984C63.4984 415.562 64.8825 414.972 65.722 413.225L70.4413 401.359L71.0993 399.702H75.1607L75.8187 401.359L80.538 413.202C81.3775 414.972 82.7842 415.562 82.7842 415.562ZM69.5791 408.256H76.7035L73.9581 401.359H72.3245L69.5791 408.256ZM90.1033 414.155C95.7302 414.155 97.3638 409.799 97.3638 409.799L98.0899 410.298C98.0899 410.298 96.5924 415.812 90.1713 415.812C85.6335 415.812 81.8217 412.136 81.8217 407.621C81.8217 403.106 85.6335 399.43 90.1713 399.43C94.3688 399.43 98.2487 401.676 98.2487 405.284L96.5016 405.012C96.5016 403.083 93.9151 401.086 90.1033 401.086C85.9965 401.086 83.5461 404.422 83.5461 407.621C83.5461 410.843 86.3142 414.155 90.1033 414.155ZM108.053 401.109C104.287 401.109 101.405 404.172 101.405 407.643C101.405 411.047 104.264 414.155 108.053 414.155C111.819 414.155 114.701 411.047 114.701 407.643C114.701 404.172 111.819 401.109 108.053 401.109ZM99.6806 407.643C99.6806 403.128 103.538 399.453 108.053 399.453C112.568 399.453 116.425 403.128 116.425 407.643C116.425 412.159 112.568 415.812 108.053 415.812C103.538 415.812 99.6806 412.159 99.6806 407.643ZM129.375 413.906C130.169 413.906 131.916 410.888 131.916 410.888L131.167 415.562H131.122L117.894 415.585C117.894 415.585 119.006 414.7 119.006 413.543V401.722C119.006 400.383 117.894 399.68 117.894 399.68H120.753V412.34C120.753 413.202 121.456 413.906 122.318 413.906H129.375ZM148.344 401.722V413.543C148.344 414.813 149.456 415.562 149.456 415.562H145.485C145.485 415.562 146.597 414.813 146.597 413.543V408.324H135.774V413.543C135.774 414.813 136.886 415.562 136.886 415.562H132.915C132.915 415.562 134.027 414.791 134.027 413.543V401.722C134.027 400.269 132.915 399.68 132.915 399.68H136.886C136.886 399.68 135.774 400.111 135.774 401.722V406.668H146.597V401.722C146.597 400.269 145.485 399.68 145.485 399.68H149.456C149.456 399.68 148.344 400.315 148.344 401.722ZM153.655 401.722V413.543C153.655 414.904 154.767 415.562 154.767 415.562H150.796C150.796 415.562 151.908 414.904 151.908 413.543V401.722C151.908 400.36 150.796 399.68 150.796 399.68H154.767C154.767 399.68 153.655 400.201 153.655 401.722ZM175.605 415.585C175.605 415.585 176.716 414.972 176.716 413.543V401.359H175.582L169.91 415.562L165.78 415.585L160.108 401.359H158.973V413.543C158.973 414.881 160.085 415.585 160.085 415.585H156.114C156.114 415.585 157.226 414.791 157.226 413.543V399.702H161.288L166.96 413.906H168.73L174.402 399.702H178.463V413.543C178.463 415.04 179.598 415.585 179.598 415.585H175.605ZM192.479 413.906C193.273 413.906 195.02 410.888 195.02 410.888L194.067 415.585H180.998C180.998 415.585 182.11 414.904 182.11 413.497V401.722C182.11 400.496 180.998 399.702 180.998 399.702H193.522L194.475 403.945C194.475 403.945 192.728 401.359 191.911 401.359H185.468C184.583 401.359 183.857 402.062 183.857 402.97V406.668H189.143C190.005 406.668 190.822 405.579 190.822 405.579V409.459C190.822 409.459 190.051 408.324 189.143 408.324H183.857V412.317C183.857 413.202 184.56 413.906 185.445 413.906H192.479ZM209.421 399.702H213.414C213.414 399.702 212.28 400.292 212.28 401.722V415.562H208.649L200.436 401.359H199.233V413.543C199.233 414.881 200.345 415.585 200.345 415.585H196.375C196.375 415.585 197.486 414.927 197.486 413.543V399.702H201.412L209.625 413.906H210.555V401.722C210.555 400.292 209.421 399.702 209.421 399.702ZM230.24 399.77L230.966 403.945C230.966 403.945 229.242 401.359 228.425 401.359H224.613C223.933 401.722 223.502 402.017 223.502 402.811V413.543C223.502 414.904 224.636 415.562 224.636 415.562H220.643C220.643 415.562 221.755 414.972 221.755 413.543V402.811C221.755 402.017 221.323 401.722 220.643 401.359H216.831C216.014 401.359 214.312 403.945 214.312 403.945L215.016 399.77V399.68H230.24V399.77ZM240.355 401.109C236.588 401.109 233.707 404.172 233.707 407.643C233.707 411.047 236.566 414.155 240.355 414.155C244.121 414.155 247.003 411.047 247.003 407.643C247.003 404.172 244.121 401.109 240.355 401.109ZM231.983 407.643C231.983 403.128 235.84 399.453 240.355 399.453C244.87 399.453 248.727 403.128 248.727 407.643C248.727 412.159 244.87 415.812 240.355 415.812C235.84 415.812 231.983 412.159 231.983 407.643Z" fill="white"/>
<path d="M83.1043 416H81.811V416.023H79.9278V416H77.5681C77.5681 416 79.406 414.684 79.0656 413.867L77.6816 410.35H69.2412L67.8345 413.89C67.5395 414.707 69.332 416 69.332 416H66.995V416.023H65.1118V416H63.8185C63.8185 416 65.2025 415.41 66.042 413.663L70.7614 401.797L71.4194 400.14H75.4807L76.1387 401.797L80.8581 413.64C81.6976 415.41 83.1043 416 83.1043 416ZM69.8992 408.694H77.0236L74.2782 401.797H72.6446L69.8992 408.694ZM90.4233 414.593C96.0503 414.593 97.6839 410.237 97.6839 410.237L98.4099 410.736C98.4099 410.736 96.9125 416.25 90.4914 416.25C85.9536 416.25 82.1418 412.574 82.1418 408.059C82.1418 403.544 85.9536 399.868 90.4914 399.868C94.6889 399.868 98.5688 402.114 98.5688 405.722L96.8217 405.45C96.8217 403.521 94.2351 401.524 90.4233 401.524C86.3166 401.524 83.8662 404.86 83.8662 408.059C83.8662 411.281 86.6342 414.593 90.4233 414.593ZM108.373 401.547C104.607 401.547 101.725 404.61 101.725 408.081C101.725 411.485 104.584 414.593 108.373 414.593C112.139 414.593 115.021 411.485 115.021 408.081C115.021 404.61 112.139 401.547 108.373 401.547ZM100.001 408.081C100.001 403.566 103.858 399.891 108.373 399.891C112.888 399.891 116.745 403.566 116.745 408.081C116.745 412.597 112.888 416.25 108.373 416.25C103.858 416.25 100.001 412.597 100.001 408.081ZM129.695 414.344C130.489 414.344 132.236 411.326 132.236 411.326L131.487 416H131.442L118.214 416.023C118.214 416.023 119.326 415.138 119.326 413.981V402.16C119.326 400.821 118.214 400.118 118.214 400.118H121.073V412.778C121.073 413.64 121.776 414.344 122.638 414.344H129.695ZM148.664 402.16V413.981C148.664 415.251 149.776 416 149.776 416H145.805C145.805 416 146.917 415.251 146.917 413.981V408.762H136.094V413.981C136.094 415.251 137.206 416 137.206 416H133.235C133.235 416 134.347 415.229 134.347 413.981V402.16C134.347 400.707 133.235 400.118 133.235 400.118H137.206C137.206 400.118 136.094 400.549 136.094 402.16V407.106H146.917V402.16C146.917 400.707 145.805 400.118 145.805 400.118H149.776C149.776 400.118 148.664 400.753 148.664 402.16ZM153.975 402.16V413.981C153.975 415.342 155.087 416 155.087 416H151.116C151.116 416 152.228 415.342 152.228 413.981V402.16C152.228 400.798 151.116 400.118 151.116 400.118H155.087C155.087 400.118 153.975 400.639 153.975 402.16ZM175.925 416.023C175.925 416.023 177.036 415.41 177.036 413.981V401.797H175.902L170.23 416L166.1 416.023L160.428 401.797H159.293V413.981C159.293 415.319 160.405 416.023 160.405 416.023H156.435C156.435 416.023 157.546 415.229 157.546 413.981V400.14H161.608L167.28 414.344H169.05L174.722 400.14H178.783V413.981C178.783 415.478 179.918 416.023 179.918 416.023H175.925ZM192.799 414.344C193.593 414.344 195.34 411.326 195.34 411.326L194.387 416.023H181.318C181.318 416.023 182.43 415.342 182.43 413.935V402.16C182.43 400.934 181.318 400.14 181.318 400.14H193.842L194.795 404.383C194.795 404.383 193.048 401.797 192.231 401.797H185.788C184.903 401.797 184.177 402.5 184.177 403.407V407.106H189.463C190.325 407.106 191.142 406.017 191.142 406.017V409.897C191.142 409.897 190.371 408.762 189.463 408.762H184.177V412.755C184.177 413.64 184.88 414.344 185.765 414.344H192.799ZM209.741 400.14H213.734C213.734 400.14 212.6 400.73 212.6 402.16V416H208.969L200.756 401.797H199.553V413.981C199.553 415.319 200.665 416.023 200.665 416.023H196.695C196.695 416.023 197.806 415.365 197.806 413.981V400.14H201.732L209.945 414.344H210.875V402.16C210.875 400.73 209.741 400.14 209.741 400.14ZM230.56 400.208L231.286 404.383C231.286 404.383 229.562 401.797 228.745 401.797H224.933C224.253 402.16 223.822 402.455 223.822 403.249V413.981C223.822 415.342 224.956 416 224.956 416H220.963C220.963 416 222.075 415.41 222.075 413.981V403.249C222.075 402.455 221.643 402.16 220.963 401.797H217.151C216.334 401.797 214.633 404.383 214.633 404.383L215.336 400.208V400.118H230.56V400.208ZM240.675 401.547C236.909 401.547 234.027 404.61 234.027 408.081C234.027 411.485 236.886 414.593 240.675 414.593C244.441 414.593 247.323 411.485 247.323 408.081C247.323 404.61 244.441 401.547 240.675 401.547ZM232.303 408.081C232.303 403.566 236.16 399.891 240.675 399.891C245.19 399.891 249.047 403.566 249.047 408.081C249.047 412.597 245.19 416.25 240.675 416.25C236.16 416.25 232.303 412.597 232.303 408.081Z" fill="white"/>
<path d="M110.008 285.593C115.635 285.593 117.268 281.237 117.268 281.237L117.994 281.736C117.994 281.736 116.497 287.25 110.076 287.25C105.538 287.25 101.726 283.574 101.726 279.059C101.726 274.544 105.538 270.868 110.076 270.868C114.273 270.868 118.153 273.114 118.153 276.722L116.406 276.45C116.406 274.521 113.819 272.524 110.008 272.524C105.901 272.524 103.45 275.86 103.45 279.059C103.45 282.281 106.219 285.593 110.008 285.593ZM132.2 271.118H136.193C136.193 271.118 135.059 271.685 135.059 273.16V280.125C135.059 285.752 131.678 287.25 127.753 287.25C123.805 287.25 120.424 285.752 120.424 280.125V273.16C120.424 271.707 119.313 271.118 119.313 271.118H123.283C123.283 271.118 122.172 271.821 122.172 273.16V280.216C122.172 284.028 123.692 285.593 127.73 285.593C131.792 285.593 133.335 284.028 133.335 280.216V273.16C133.335 271.685 132.2 271.118 132.2 271.118ZM140.19 273.16V284.981C140.19 286.342 141.302 287 141.302 287H137.331C137.331 287 138.443 286.342 138.443 284.981V273.16C138.443 271.798 137.331 271.118 137.331 271.118H141.302C141.302 271.118 140.19 271.639 140.19 273.16ZM150.273 271.14C154.516 271.14 158.668 274.317 158.668 278.537C158.668 283.642 155.106 287.023 150.546 287.023H142.672C142.672 287.023 143.784 286.365 143.784 284.958V273.16C143.784 271.821 142.672 271.14 142.672 271.14H150.273ZM150.546 285.344C154.199 285.344 156.944 282.326 156.944 279.059C156.944 275.678 154.199 272.797 150.546 272.797H147.21C146.28 272.797 145.531 273.545 145.531 274.476V283.733C145.531 284.618 146.257 285.344 147.142 285.344H150.546ZM176.982 287H175.689V287.023H173.806V287H171.446C171.446 287 173.284 285.684 172.944 284.867L171.56 281.35H163.119L161.713 284.89C161.418 285.707 163.21 287 163.21 287H160.873V287.023H158.99V287H157.697C157.697 287 159.081 286.41 159.92 284.663L164.639 272.797L165.297 271.14H169.359L170.017 272.797L174.736 284.64C175.576 286.41 176.982 287 176.982 287ZM163.777 279.694H170.902L168.156 272.797H166.523L163.777 279.694ZM185.127 271.14C189.37 271.14 193.522 274.317 193.522 278.537C193.522 283.642 189.96 287.023 185.399 287.023H177.526C177.526 287.023 178.638 286.365 178.638 284.958V273.16C178.638 271.821 177.526 271.14 177.526 271.14H185.127ZM185.399 285.344C189.052 285.344 191.798 282.326 191.798 279.059C191.798 275.678 189.052 272.797 185.399 272.797H182.064C181.134 272.797 180.385 273.545 180.385 274.476V283.733C180.385 284.618 181.111 285.344 181.996 285.344H185.399ZM203.359 272.547C199.593 272.547 196.711 275.61 196.711 279.081C196.711 282.485 199.57 285.593 203.359 285.593C207.125 285.593 210.007 282.485 210.007 279.081C210.007 275.61 207.125 272.547 203.359 272.547ZM194.987 279.081C194.987 274.566 198.844 270.891 203.359 270.891C207.874 270.891 211.731 274.566 211.731 279.081C211.731 283.597 207.874 287.25 203.359 287.25C198.844 287.25 194.987 283.597 194.987 279.081Z" fill="#FFB703"/>
</svg>
