<svg width="162" height="288" viewBox="0 0 162 288" fill="none" xmlns="http://www.w3.org/2000/svg">
<path d="M81 158C125.183 158 161 122.854 161 79.5C161 36.1456 125.183 1 81 1C36.8172 1 1 36.1456 1 79.5C1 122.854 36.8172 158 81 158Z" stroke="white" stroke-width="1.2" stroke-miterlimit="10"/>
<path d="M44.209 76.9615C46.3595 76.9615 48.464 78.5715 48.464 80.7105C48.464 83.298 46.6585 85.0115 44.347 85.0115H40.3565C40.3565 85.0115 40.92 84.678 40.92 83.965V77.985C40.92 77.3065 40.3565 76.9615 40.3565 76.9615H44.209ZM44.347 84.1605C46.1985 84.1605 47.59 82.631 47.59 80.975C47.59 79.2615 46.1985 77.801 44.347 77.801H42.6565C42.185 77.801 41.8055 78.1805 41.8055 78.652V83.344C41.8055 83.7925 42.1735 84.1605 42.622 84.1605H44.347ZM50.6209 77.985V83.9765C50.6209 84.6665 51.1844 85 51.1844 85H49.1719C49.1719 85 49.7354 84.6665 49.7354 83.9765V77.985C49.7354 77.295 49.1719 76.95 49.1719 76.95H51.1844C51.1844 76.95 50.6209 77.2145 50.6209 77.985ZM60.5385 76.9615V76.95H61.194C61.194 76.95 60.481 77.2605 60.0555 78.1575L57.6635 84.1605L57.33 85H55.2715L54.938 84.1605L52.546 78.146C52.1205 77.249 51.419 76.9615 51.419 76.9615H52.0745V76.95H53.029V76.9615H54.2135C54.2135 76.9615 53.305 77.6055 53.4545 78.031L55.8925 84.1605H56.7205L59.147 78.0425C59.3195 77.6285 58.388 76.9615 58.388 76.9615H59.584V76.95H60.5385V76.9615ZM67.2776 84.1605C67.6801 84.1605 68.5656 82.631 68.5656 82.631L68.0826 85.0115H61.4586C61.4586 85.0115 62.0221 84.6665 62.0221 83.9535V77.985C62.0221 77.364 61.4586 76.9615 61.4586 76.9615H67.8066L68.2896 79.112C68.2896 79.112 67.4041 77.801 66.9901 77.801H63.7241C63.2756 77.801 62.9076 78.1575 62.9076 78.6175V80.492H65.5871C66.0241 80.492 66.4381 79.94 66.4381 79.94V81.9065C66.4381 81.9065 66.0471 81.3315 65.5871 81.3315H62.9076V83.3555C62.9076 83.804 63.2641 84.1605 63.7126 84.1605H67.2776ZM75.9107 83.459C76.3477 84.034 77.0377 84.563 77.7622 84.563V85C76.8077 85 75.7037 84.563 75.1172 83.804L73.4842 81.6995H70.6897V83.9765C70.6897 84.6665 71.2532 85 71.2532 85H69.2407C69.2407 85 69.8042 84.6665 69.8042 83.9765V78.0885C69.8042 77.318 69.2407 76.95 69.2407 76.95H74.4732V76.9615C75.7612 76.9615 76.8077 77.9965 76.8077 79.2845C76.8077 80.722 75.7957 81.665 74.5422 81.688L75.9107 83.459ZM70.6897 78.606V80.86H74.1512C74.9447 80.86 75.7382 80.3885 75.8762 79.6985C76.0832 78.606 75.3127 77.801 74.2662 77.801H71.5062C71.0577 77.801 70.6897 78.169 70.6897 78.606ZM79.0834 79.2385C79.0834 80.998 85.4199 80.469 85.4199 82.884C85.4199 84.08 84.2239 85.1265 81.7744 85.1265C79.2904 85.1265 78.0254 84.08 78.0254 81.803L79.0144 81.9065C79.0144 83.919 80.2564 84.287 81.7744 84.287C83.5914 84.287 84.5344 83.8615 84.5344 82.884C84.5344 81.3315 78.1979 81.895 78.1979 79.2385C78.1979 78.0425 79.0144 76.858 81.7284 76.858C84.5229 76.858 85.3394 78.491 85.3394 79.641L84.3389 79.526C84.3389 78.238 83.3729 77.6745 81.7284 77.6745C80.0494 77.6745 79.0834 78.169 79.0834 79.2385ZM87.6365 77.985V83.9765C87.6365 84.6665 88.2 85 88.2 85H86.1875C86.1875 85 86.751 84.6665 86.751 83.9765V77.985C86.751 77.295 86.1875 76.95 86.1875 76.95H88.2C88.2 76.95 87.6365 77.2145 87.6365 77.985ZM92.7471 76.9615C94.8976 76.9615 97.0021 78.5715 97.0021 80.7105C97.0021 83.298 95.1966 85.0115 92.8851 85.0115H88.8946C88.8946 85.0115 89.4581 84.678 89.4581 83.965V77.985C89.4581 77.3065 88.8946 76.9615 88.8946 76.9615H92.7471ZM92.8851 84.1605C94.7366 84.1605 96.1281 82.631 96.1281 80.975C96.1281 79.2615 94.7366 77.801 92.8851 77.801H91.1946C90.7231 77.801 90.3436 78.1805 90.3436 78.652V83.344C90.3436 83.7925 90.7116 84.1605 91.1601 84.1605H92.8851ZM106.285 85H105.629V85.0115H104.675V85H103.479C103.479 85 104.41 84.333 104.238 83.919L103.536 82.1365H99.2581L98.5451 83.9305C98.3956 84.3445 99.3041 85 99.3041 85H98.1196V85.0115H97.1651V85H96.5096C96.5096 85 97.2111 84.701 97.6366 83.8155L100.029 77.801L100.362 76.9615H102.421L102.754 77.801L105.146 83.804C105.572 84.701 106.285 85 106.285 85ZM99.5916 81.297H103.203L101.811 77.801H100.983L99.5916 81.297ZM110.413 76.9615C112.563 76.9615 114.668 78.5715 114.668 80.7105C114.668 83.298 112.862 85.0115 110.551 85.0115H106.56C106.56 85.0115 107.124 84.678 107.124 83.965V77.985C107.124 77.3065 106.56 76.9615 106.56 76.9615H110.413ZM110.551 84.1605C112.402 84.1605 113.794 82.631 113.794 80.975C113.794 79.2615 112.402 77.801 110.551 77.801H108.86C108.389 77.801 108.009 78.1805 108.009 78.652V83.344C108.009 83.7925 108.377 84.1605 108.826 84.1605H110.551ZM121.217 84.1605C121.62 84.1605 122.505 82.631 122.505 82.631L122.022 85.0115H115.398C115.398 85.0115 115.962 84.6665 115.962 83.9535V77.985C115.962 77.364 115.398 76.9615 115.398 76.9615H121.746L122.229 79.112C122.229 79.112 121.344 77.801 120.93 77.801H117.664C117.215 77.801 116.847 78.1575 116.847 78.6175V80.492H119.527C119.964 80.492 120.378 79.94 120.378 79.94V81.9065C120.378 81.9065 119.987 81.3315 119.527 81.3315H116.847V83.3555C116.847 83.804 117.204 84.1605 117.652 84.1605H121.217Z" fill="white"/>
<path d="M81 287C125.183 287 161 251.63 161 208C161 164.37 125.183 129 81 129C36.8172 129 1 164.37 1 208C1 251.63 36.8172 287 81 287Z" stroke="white" stroke-width="1.2" stroke-miterlimit="10"/>
<path d="M43.683 213H43.0275V213.012H42.073V213H40.877C40.877 213 41.8085 212.333 41.636 211.919L40.9345 210.136H36.6565L35.9435 211.93C35.794 212.344 36.7025 213 36.7025 213H35.518V213.012H34.5635V213H33.908C33.908 213 34.6095 212.701 35.035 211.815L37.427 205.801L37.7605 204.961H39.819L40.1525 205.801L42.5445 211.804C42.97 212.701 43.683 213 43.683 213ZM36.99 209.297H40.601L39.2095 205.801H38.3815L36.99 209.297ZM47.3926 212.287C50.2446 212.287 51.0726 210.079 51.0726 210.079L51.4406 210.332C51.4406 210.332 50.6816 213.127 47.4271 213.127C45.1271 213.127 43.1951 211.263 43.1951 208.975C43.1951 206.686 45.1271 204.823 47.4271 204.823C49.5546 204.823 51.5211 205.962 51.5211 207.79L50.6356 207.652C50.6356 206.675 49.3246 205.663 47.3926 205.663C45.3111 205.663 44.0691 207.353 44.0691 208.975C44.0691 210.608 45.4721 212.287 47.3926 212.287ZM56.4904 205.674C54.5814 205.674 53.1209 207.227 53.1209 208.986C53.1209 210.711 54.5699 212.287 56.4904 212.287C58.3994 212.287 59.8599 210.711 59.8599 208.986C59.8599 207.227 58.3994 205.674 56.4904 205.674ZM52.2469 208.986C52.2469 206.698 54.2019 204.835 56.4904 204.835C58.7789 204.835 60.7339 206.698 60.7339 208.986C60.7339 211.275 58.7789 213.127 56.4904 213.127C54.2019 213.127 52.2469 211.275 52.2469 208.986ZM67.2974 212.16C67.6999 212.16 68.5854 210.631 68.5854 210.631L68.2059 213H68.1829L61.4784 213.012C61.4784 213.012 62.0419 212.563 62.0419 211.976V205.985C62.0419 205.306 61.4784 204.95 61.4784 204.95H62.9274V211.367C62.9274 211.804 63.2839 212.16 63.7209 212.16H67.2974ZM76.9118 205.985V211.976C76.9118 212.621 77.4753 213 77.4753 213H75.4628C75.4628 213 76.0263 212.621 76.0263 211.976V209.331H70.5408V211.976C70.5408 212.621 71.1043 213 71.1043 213H69.0918C69.0918 213 69.6553 212.609 69.6553 211.976V205.985C69.6553 205.249 69.0918 204.95 69.0918 204.95H71.1043C71.1043 204.95 70.5408 205.168 70.5408 205.985V208.492H76.0263V205.985C76.0263 205.249 75.4628 204.95 75.4628 204.95H77.4753C77.4753 204.95 76.9118 205.272 76.9118 205.985ZM79.6038 205.985V211.976C79.6038 212.666 80.1673 213 80.1673 213H78.1548C78.1548 213 78.7183 212.666 78.7183 211.976V205.985C78.7183 205.295 78.1548 204.95 78.1548 204.95H80.1673C80.1673 204.95 79.6038 205.214 79.6038 205.985ZM90.7289 213.012C90.7289 213.012 91.2924 212.701 91.2924 211.976V205.801H90.7174L87.8424 213L85.7494 213.012L82.8744 205.801H82.2994V211.976C82.2994 212.655 82.8629 213.012 82.8629 213.012H80.8504C80.8504 213.012 81.4139 212.609 81.4139 211.976V204.961H83.4724L86.3474 212.16H87.2444L90.1194 204.961H92.1779V211.976C92.1779 212.735 92.7529 213.012 92.7529 213.012H90.7289ZM99.2815 212.16C99.684 212.16 100.569 210.631 100.569 210.631L100.086 213.012H93.4625C93.4625 213.012 94.026 212.666 94.026 211.953V205.985C94.026 205.364 93.4625 204.961 93.4625 204.961H99.8105L100.293 207.112C100.293 207.112 99.408 205.801 98.994 205.801H95.728C95.2795 205.801 94.9115 206.157 94.9115 206.617V208.492H97.591C98.028 208.492 98.442 207.94 98.442 207.94V209.906C98.442 209.906 98.051 209.331 97.591 209.331H94.9115V211.355C94.9115 211.804 95.268 212.16 95.7165 212.16H99.2815ZM107.869 204.961H109.893C109.893 204.961 109.318 205.26 109.318 205.985V213H107.478L103.315 205.801H102.705V211.976C102.705 212.655 103.269 213.012 103.269 213.012H101.256C101.256 213.012 101.82 212.678 101.82 211.976V204.961H103.809L107.972 212.16H108.444V205.985C108.444 205.26 107.869 204.961 107.869 204.961ZM118.421 204.996L118.789 207.112C118.789 207.112 117.915 205.801 117.501 205.801H115.569C115.224 205.985 115.005 206.134 115.005 206.537V211.976C115.005 212.666 115.58 213 115.58 213H113.556C113.556 213 114.12 212.701 114.12 211.976V206.537C114.12 206.134 113.901 205.985 113.556 205.801H111.624C111.21 205.801 110.348 207.112 110.348 207.112L110.704 204.996V204.95H118.421V204.996ZM123.548 205.674C121.639 205.674 120.178 207.227 120.178 208.986C120.178 210.711 121.627 212.287 123.548 212.287C125.457 212.287 126.917 210.711 126.917 208.986C126.917 207.227 125.457 205.674 123.548 205.674ZM119.304 208.986C119.304 206.698 121.259 204.835 123.548 204.835C125.836 204.835 127.791 206.698 127.791 208.986C127.791 211.275 125.836 213.127 123.548 213.127C121.259 213.127 119.304 211.275 119.304 208.986Z" fill="white"/>
<path d="M56.5655 147.287C59.4175 147.287 60.2455 145.079 60.2455 145.079L60.6135 145.332C60.6135 145.332 59.8545 148.127 56.6 148.127C54.3 148.127 52.368 146.263 52.368 143.975C52.368 141.686 54.3 139.823 56.6 139.823C58.7275 139.823 60.694 140.962 60.694 142.79L59.8085 142.652C59.8085 141.675 58.4975 140.663 56.5655 140.663C54.484 140.663 53.242 142.353 53.242 143.975C53.242 145.608 54.645 147.287 56.5655 147.287ZM67.8138 139.95H69.8378C69.8378 139.95 69.2628 140.237 69.2628 140.985V144.515C69.2628 147.367 67.5493 148.127 65.5598 148.127C63.5588 148.127 61.8453 147.367 61.8453 144.515V140.985C61.8453 140.249 61.2818 139.95 61.2818 139.95H63.2943C63.2943 139.95 62.7308 140.306 62.7308 140.985V144.561C62.7308 146.493 63.5013 147.287 65.5483 147.287C67.6068 147.287 68.3888 146.493 68.3888 144.561V140.985C68.3888 140.237 67.8138 139.95 67.8138 139.95ZM71.8636 140.985V146.976C71.8636 147.666 72.4271 148 72.4271 148H70.4146C70.4146 148 70.9781 147.666 70.9781 146.976V140.985C70.9781 140.295 70.4146 139.95 70.4146 139.95H72.4271C72.4271 139.95 71.8636 140.214 71.8636 140.985ZM76.9741 139.961C79.1246 139.961 81.2291 141.571 81.2291 143.71C81.2291 146.298 79.4236 148.012 77.1121 148.012H73.1216C73.1216 148.012 73.6851 147.678 73.6851 146.965V140.985C73.6851 140.306 73.1216 139.961 73.1216 139.961H76.9741ZM77.1121 147.16C78.9636 147.16 80.3551 145.631 80.3551 143.975C80.3551 142.261 78.9636 140.801 77.1121 140.801H75.4216C74.9501 140.801 74.5706 141.18 74.5706 141.652V146.344C74.5706 146.792 74.9386 147.16 75.3871 147.16H77.1121ZM90.5116 148H89.8561V148.012H88.9016V148H87.7056C87.7056 148 88.6371 147.333 88.4646 146.919L87.7631 145.136H83.4851L82.7721 146.93C82.6226 147.344 83.5311 148 83.5311 148H82.3466V148.012H81.3921V148H80.7366C80.7366 148 81.4381 147.701 81.8636 146.815L84.2556 140.801L84.5891 139.961H86.6476L86.9811 140.801L89.3731 146.804C89.7986 147.701 90.5116 148 90.5116 148ZM83.8186 144.297H87.4296L86.0381 140.801H85.2101L83.8186 144.297ZM94.6397 139.961C96.7902 139.961 98.8947 141.571 98.8947 143.71C98.8947 146.298 97.0892 148.012 94.7777 148.012H90.7872C90.7872 148.012 91.3507 147.678 91.3507 146.965V140.985C91.3507 140.306 90.7872 139.961 90.7872 139.961H94.6397ZM94.7777 147.16C96.6292 147.16 98.0207 145.631 98.0207 143.975C98.0207 142.261 96.6292 140.801 94.7777 140.801H93.0872C92.6157 140.801 92.2362 141.18 92.2362 141.652V146.344C92.2362 146.792 92.6042 147.16 93.0527 147.16H94.7777ZM103.881 140.674C101.972 140.674 100.511 142.227 100.511 143.986C100.511 145.711 101.96 147.287 103.881 147.287C105.79 147.287 107.25 145.711 107.25 143.986C107.25 142.227 105.79 140.674 103.881 140.674ZM99.637 143.986C99.637 141.698 101.592 139.835 103.881 139.835C106.169 139.835 108.124 141.698 108.124 143.986C108.124 146.275 106.169 148.127 103.881 148.127C101.592 148.127 99.637 146.275 99.637 143.986Z" fill="#FFB703"/>
</svg>
