<svg width="245" height="435" viewBox="0 0 245 435" fill="none" xmlns="http://www.w3.org/2000/svg">
<path d="M122.704 240C189.368 240 243.409 186.722 243.409 121C243.409 55.2781 189.368 2 122.704 2C56.0412 2 2 55.2781 2 121C2 186.722 56.0412 240 122.704 240Z" stroke="white" stroke-width="3" stroke-miterlimit="10"/>
<path d="M69.7297 114.816C72.7217 114.816 75.6497 117.056 75.6497 120.032C75.6497 123.632 73.1377 126.016 69.9217 126.016H64.3697C64.3697 126.016 65.1537 125.552 65.1537 124.56V116.24C65.1537 115.296 64.3697 114.816 64.3697 114.816H69.7297ZM69.9217 124.832C72.4977 124.832 74.4337 122.704 74.4337 120.4C74.4337 118.016 72.4977 115.984 69.9217 115.984H67.5697C66.9137 115.984 66.3857 116.512 66.3857 117.168V123.696C66.3857 124.32 66.8977 124.832 67.5217 124.832H69.9217ZM78.6505 116.24V124.576C78.6505 125.536 79.4345 126 79.4345 126H76.6345C76.6345 126 77.4185 125.536 77.4185 124.576V116.24C77.4185 115.28 76.6345 114.8 76.6345 114.8H79.4345C79.4345 114.8 78.6505 115.168 78.6505 116.24ZM92.4489 114.816V114.8H93.3609C93.3609 114.8 92.3689 115.232 91.7769 116.48L88.4489 124.832L87.9849 126H85.1209L84.6569 124.832L81.3289 116.464C80.7369 115.216 79.7609 114.816 79.7609 114.816H80.6729V114.8H82.0009V114.816H83.6489C83.6489 114.816 82.3849 115.712 82.5929 116.304L85.9849 124.832H87.1369L90.5129 116.32C90.7529 115.744 89.4569 114.816 89.4569 114.816H91.1209V114.8H92.4489V114.816ZM101.825 124.832C102.385 124.832 103.617 122.704 103.617 122.704L102.945 126.016H93.729C93.729 126.016 94.513 125.536 94.513 124.544V116.24C94.513 115.376 93.729 114.816 93.729 114.816H102.561L103.233 117.808C103.233 117.808 102.001 115.984 101.425 115.984H96.881C96.257 115.984 95.745 116.48 95.745 117.12V119.728H99.473C100.081 119.728 100.657 118.96 100.657 118.96V121.696C100.657 121.696 100.113 120.896 99.473 120.896H95.745V123.712C95.745 124.336 96.241 124.832 96.865 124.832H101.825ZM113.836 123.856C114.444 124.656 115.404 125.392 116.412 125.392V126C115.084 126 113.548 125.392 112.732 124.336L110.46 121.408H106.572V124.576C106.572 125.536 107.356 126 107.356 126H104.556C104.556 126 105.34 125.536 105.34 124.576V116.384C105.34 115.312 104.556 114.8 104.556 114.8H111.836V114.816C113.628 114.816 115.084 116.256 115.084 118.048C115.084 120.048 113.676 121.36 111.932 121.392L113.836 123.856ZM106.572 117.104V120.24H111.388C112.492 120.24 113.596 119.584 113.788 118.624C114.076 117.104 113.004 115.984 111.548 115.984H107.708C107.084 115.984 106.572 116.496 106.572 117.104ZM118.251 117.984C118.251 120.432 127.067 119.696 127.067 123.056C127.067 124.72 125.403 126.176 121.995 126.176C118.539 126.176 116.779 124.72 116.779 121.552L118.155 121.696C118.155 124.496 119.883 125.008 121.995 125.008C124.523 125.008 125.835 124.416 125.835 123.056C125.835 120.896 117.019 121.68 117.019 117.984C117.019 116.32 118.155 114.672 121.931 114.672C125.819 114.672 126.955 116.944 126.955 118.544L125.563 118.384C125.563 116.592 124.219 115.808 121.931 115.808C119.595 115.808 118.251 116.496 118.251 117.984ZM130.151 116.24V124.576C130.151 125.536 130.935 126 130.935 126H128.135C128.135 126 128.919 125.536 128.919 124.576V116.24C128.919 115.28 128.135 114.8 128.135 114.8H130.935C130.935 114.8 130.151 115.168 130.151 116.24ZM137.261 114.816C140.253 114.816 143.181 117.056 143.181 120.032C143.181 123.632 140.669 126.016 137.453 126.016H131.901C131.901 126.016 132.685 125.552 132.685 124.56V116.24C132.685 115.296 131.901 114.816 131.901 114.816H137.261ZM137.453 124.832C140.029 124.832 141.965 122.704 141.965 120.4C141.965 118.016 140.029 115.984 137.453 115.984H135.101C134.445 115.984 133.917 116.512 133.917 117.168V123.696C133.917 124.32 134.429 124.832 135.053 124.832H137.453ZM156.096 126H155.184V126.016H153.856V126H152.192C152.192 126 153.488 125.072 153.248 124.496L152.272 122.016H146.32L145.328 124.512C145.12 125.088 146.384 126 146.384 126H144.736V126.016H143.408V126H142.496C142.496 126 143.472 125.584 144.064 124.352L147.392 115.984L147.856 114.816H150.72L151.184 115.984L154.512 124.336C155.104 125.584 156.096 126 156.096 126ZM146.784 120.848H151.808L149.872 115.984H148.72L146.784 120.848ZM161.839 114.816C164.831 114.816 167.759 117.056 167.759 120.032C167.759 123.632 165.247 126.016 162.031 126.016H156.479C156.479 126.016 157.263 125.552 157.263 124.56V116.24C157.263 115.296 156.479 114.816 156.479 114.816H161.839ZM162.031 124.832C164.607 124.832 166.543 122.704 166.543 120.4C166.543 118.016 164.607 115.984 162.031 115.984H159.679C159.023 115.984 158.495 116.512 158.495 117.168V123.696C158.495 124.32 159.007 124.832 159.631 124.832H162.031ZM176.872 124.832C177.432 124.832 178.664 122.704 178.664 122.704L177.992 126.016H168.776C168.776 126.016 169.56 125.536 169.56 124.544V116.24C169.56 115.376 168.776 114.816 168.776 114.816H177.608L178.28 117.808C178.28 117.808 177.048 115.984 176.472 115.984H171.928C171.304 115.984 170.792 116.48 170.792 117.12V119.728H174.52C175.128 119.728 175.704 118.96 175.704 118.96V121.696C175.704 121.696 175.16 120.896 174.52 120.896H170.792V123.712C170.792 124.336 171.288 124.832 171.912 124.832H176.872Z" fill="white"/>
<path d="M122.704 433C189.368 433 243.409 379.722 243.409 314C243.409 248.278 189.368 195 122.704 195C56.0412 195 2 248.278 2 314C2 379.722 56.0412 433 122.704 433Z" stroke="white" stroke-width="3" stroke-miterlimit="10"/>
<path d="M69.231 319H68.319V319.016H66.991V319H65.327C65.327 319 66.623 318.072 66.383 317.496L65.407 315.016H59.455L58.463 317.512C58.255 318.088 59.519 319 59.519 319H57.871V319.016H56.543V319H55.631C55.631 319 56.607 318.584 57.199 317.352L60.527 308.984L60.991 307.816H63.855L64.319 308.984L67.647 317.336C68.239 318.584 69.231 319 69.231 319ZM59.919 313.848H64.943L63.007 308.984H61.855L59.919 313.848ZM74.3923 318.008C78.3603 318.008 79.5123 314.936 79.5123 314.936L80.0243 315.288C80.0243 315.288 78.9683 319.176 74.4403 319.176C71.2403 319.176 68.5523 316.584 68.5523 313.4C68.5523 310.216 71.2403 307.624 74.4403 307.624C77.4003 307.624 80.1363 309.208 80.1363 311.752L78.9043 311.56C78.9043 310.2 77.0803 308.792 74.3923 308.792C71.4963 308.792 69.7683 311.144 69.7683 313.4C69.7683 315.672 71.7203 318.008 74.3923 318.008ZM87.05 308.808C84.394 308.808 82.362 310.968 82.362 313.416C82.362 315.816 84.378 318.008 87.05 318.008C89.706 318.008 91.738 315.816 91.738 313.416C91.738 310.968 89.706 308.808 87.05 308.808ZM81.146 313.416C81.146 310.232 83.866 307.64 87.05 307.64C90.234 307.64 92.954 310.232 92.954 313.416C92.954 316.6 90.234 319.176 87.05 319.176C83.866 319.176 81.146 316.6 81.146 313.416ZM102.086 317.832C102.646 317.832 103.878 315.704 103.878 315.704L103.35 319H103.318L93.9898 319.016C93.9898 319.016 94.7738 318.392 94.7738 317.576V309.24C94.7738 308.296 93.9898 307.8 93.9898 307.8H96.0058V316.728C96.0058 317.336 96.5018 317.832 97.1098 317.832H102.086ZM115.462 309.24V317.576C115.462 318.472 116.246 319 116.246 319H113.446C113.446 319 114.23 318.472 114.23 317.576V313.896H106.598V317.576C106.598 318.472 107.382 319 107.382 319H104.582C104.582 319 105.366 318.456 105.366 317.576V309.24C105.366 308.216 104.582 307.8 104.582 307.8H107.382C107.382 307.8 106.598 308.104 106.598 309.24V312.728H114.23V309.24C114.23 308.216 113.446 307.8 113.446 307.8H116.246C116.246 307.8 115.462 308.248 115.462 309.24ZM119.208 309.24V317.576C119.208 318.536 119.992 319 119.992 319H117.192C117.192 319 117.976 318.536 117.976 317.576V309.24C117.976 308.28 117.192 307.8 117.192 307.8H119.992C119.992 307.8 119.208 308.168 119.208 309.24ZM134.686 319.016C134.686 319.016 135.47 318.584 135.47 317.576V308.984H134.67L130.67 319L127.758 319.016L123.758 308.984H122.958V317.576C122.958 318.52 123.742 319.016 123.742 319.016H120.942C120.942 319.016 121.726 318.456 121.726 317.576V307.816H124.59L128.59 317.832H129.838L133.838 307.816H136.702V317.576C136.702 318.632 137.502 319.016 137.502 319.016H134.686ZM146.585 317.832C147.145 317.832 148.377 315.704 148.377 315.704L147.705 319.016H138.489C138.489 319.016 139.273 318.536 139.273 317.544V309.24C139.273 308.376 138.489 307.816 138.489 307.816H147.321L147.993 310.808C147.993 310.808 146.761 308.984 146.185 308.984H141.641C141.017 308.984 140.505 309.48 140.505 310.12V312.728H144.233C144.841 312.728 145.417 311.96 145.417 311.96V314.696C145.417 314.696 144.873 313.896 144.233 313.896H140.505V316.712C140.505 317.336 141.001 317.832 141.625 317.832H146.585ZM158.533 307.816H161.349C161.349 307.816 160.549 308.232 160.549 309.24V319H157.989L152.197 308.984H151.349V317.576C151.349 318.52 152.133 319.016 152.133 319.016H149.333C149.333 319.016 150.117 318.552 150.117 317.576V307.816H152.885L158.677 317.832H159.333V309.24C159.333 308.232 158.533 307.816 158.533 307.816ZM173.214 307.864L173.726 310.808C173.726 310.808 172.51 308.984 171.934 308.984H169.246C168.766 309.24 168.462 309.448 168.462 310.008V317.576C168.462 318.536 169.262 319 169.262 319H166.446C166.446 319 167.23 318.584 167.23 317.576V310.008C167.23 309.448 166.926 309.24 166.446 308.984H163.758C163.182 308.984 161.982 310.808 161.982 310.808L162.478 307.864V307.8H173.214V307.864ZM180.347 308.808C177.691 308.808 175.659 310.968 175.659 313.416C175.659 315.816 177.675 318.008 180.347 318.008C183.003 318.008 185.035 315.816 185.035 313.416C185.035 310.968 183.003 308.808 180.347 308.808ZM174.443 313.416C174.443 310.232 177.163 307.64 180.347 307.64C183.531 307.64 186.251 310.232 186.251 313.416C186.251 316.6 183.531 319.176 180.347 319.176C177.163 319.176 174.443 316.6 174.443 313.416Z" fill="white"/>
<path d="M88.4835 221.008C92.4515 221.008 93.6035 217.936 93.6035 217.936L94.1155 218.288C94.1155 218.288 93.0595 222.176 88.5315 222.176C85.3315 222.176 82.6435 219.584 82.6435 216.4C82.6435 213.216 85.3315 210.624 88.5315 210.624C91.4915 210.624 94.2275 212.208 94.2275 214.752L92.9955 214.56C92.9955 213.2 91.1715 211.792 88.4835 211.792C85.5875 211.792 83.8595 214.144 83.8595 216.4C83.8595 218.672 85.8115 221.008 88.4835 221.008ZM104.133 210.8H106.949C106.949 210.8 106.149 211.2 106.149 212.24V217.152C106.149 221.12 103.765 222.176 100.997 222.176C98.2132 222.176 95.8292 221.12 95.8292 217.152V212.24C95.8292 211.216 95.0452 210.8 95.0452 210.8H97.8452C97.8452 210.8 97.0612 211.296 97.0612 212.24V217.216C97.0612 219.904 98.1332 221.008 100.981 221.008C103.845 221.008 104.933 219.904 104.933 217.216V212.24C104.933 211.2 104.133 210.8 104.133 210.8ZM109.768 212.24V220.576C109.768 221.536 110.552 222 110.552 222H107.752C107.752 222 108.536 221.536 108.536 220.576V212.24C108.536 211.28 107.752 210.8 107.752 210.8H110.552C110.552 210.8 109.768 211.168 109.768 212.24ZM116.878 210.816C119.87 210.816 122.798 213.056 122.798 216.032C122.798 219.632 120.286 222.016 117.07 222.016H111.518C111.518 222.016 112.302 221.552 112.302 220.56V212.24C112.302 211.296 111.518 210.816 111.518 210.816H116.878ZM117.07 220.832C119.646 220.832 121.582 218.704 121.582 216.4C121.582 214.016 119.646 211.984 117.07 211.984H114.718C114.062 211.984 113.534 212.512 113.534 213.168V219.696C113.534 220.32 114.046 220.832 114.67 220.832H117.07ZM135.713 222H134.801V222.016H133.473V222H131.809C131.809 222 133.105 221.072 132.865 220.496L131.889 218.016H125.937L124.945 220.512C124.737 221.088 126.001 222 126.001 222H124.353V222.016H123.025V222H122.113C122.113 222 123.089 221.584 123.681 220.352L127.009 211.984L127.473 210.816H130.337L130.801 211.984L134.129 220.336C134.721 221.584 135.713 222 135.713 222ZM126.401 216.848H131.425L129.489 211.984H128.337L126.401 216.848ZM141.456 210.816C144.448 210.816 147.376 213.056 147.376 216.032C147.376 219.632 144.864 222.016 141.648 222.016H136.096C136.096 222.016 136.88 221.552 136.88 220.56V212.24C136.88 211.296 136.096 210.816 136.096 210.816H141.456ZM141.648 220.832C144.224 220.832 146.16 218.704 146.16 216.4C146.16 214.016 144.224 211.984 141.648 211.984H139.296C138.64 211.984 138.112 212.512 138.112 213.168V219.696C138.112 220.32 138.624 220.832 139.248 220.832H141.648ZM154.313 211.808C151.657 211.808 149.625 213.968 149.625 216.416C149.625 218.816 151.641 221.008 154.313 221.008C156.969 221.008 159.001 218.816 159.001 216.416C159.001 213.968 156.969 211.808 154.313 211.808ZM148.409 216.416C148.409 213.232 151.129 210.64 154.313 210.64C157.497 210.64 160.217 213.232 160.217 216.416C160.217 219.6 157.497 222.176 154.313 222.176C151.129 222.176 148.409 219.6 148.409 216.416Z" fill="#FFB703"/>
</svg>
