<?xml version="1.0" encoding="UTF-8"?>
<svg id="Layer_1" xmlns="http://www.w3.org/2000/svg" version="1.1" viewBox="0 0 1038.46 794.36">
  <!-- Generator: Adobe Illustrator 29.2.1, SVG Export Plug-In . SVG Version: 2.1.0 Build 116)  -->
  <defs>
    <style>
      .st0 {
        fill: #2a381a;
      }

      .st1 {
        fill: #ffb703;
      }

      .st2 {
        fill: #bc6d27;
      }

      .st3 {
        fill: #ccbaa3;
      }

      .st4 {
        fill: #c98c33;
      }
    </style>
  </defs>
  <path class="st0" d="M238.48,793.94c-3.82-.05-7.65-.04-11.47-.06,1.6-4.54,2.7-9.17,3.94-13.78.08-.3.08-.61.12-.92,1.14-3.11.03-4.29-3.93-4.66-10.52-.98-21.12-.91-31.64-1.8-3.02-.25-6.03-.54-9.04-.81-.23-.03-.46-.05-.69-.08-5.24-.71-10.5-1.31-15.68-2.28-.84-.16-1.72-.16-2.59-.24-2.68-1.02-5.63-1.26-8.44-1.92-6.48-1.53-12.79-3.45-19.12-5.34-3.2-1.17-6.41-2.33-9.6-3.52-3.15-1.18-5.91-2.75-7.95-5.06-.22-.26-.49-.49-.92-.51,0,0,.02.02.02.02.19-.45-.09-.76-.51-1.01-.94-1.99-2.05-3.94-2.37-6.09.07-.95.16-1.91-.49-2.78-.22-10.49-.4-20.98.29-31.46.2-3.13.19-6.26.28-9.39.59-.63.57-1.32.36-2.04.42-5.32,1-10.63,2-15.9.83-4.36,1.76-8.73,3.66-12.9.62-1.37,1.43-2.76,2.53-3.91,1.62-1.69,2.83-3.52,4.08-5.38,2.19-3.26,5.05-6.16,8.24-8.85,7.99-6.73,16.4-13.08,26.08-18.27,1.14-.61,2.26-1.27,3.27-2,7.3-5.31,16.17-8.18,25.46-10.32,7.14-1.64,14.46-2.7,21.73-3.94,7.27-1.24,14.57-2.35,21.82-3.65,4.57-.25,9.06-.97,13.64-1.19,2.24-.11,4.48-.2,6.72-.23,2.64-.04,5.26-.11,7.86-.53,4.63.04,9.16-.72,13.75-1.08,2.24-.17,4.47-.55,6.71-.66,1.41-.07,2.05-.53,2.49-1.56,1.48-3.4,3.13-6.75,4.61-10.15,2.4-5.52,4.65-11.08,7.07-16.59,2.41-5.46,4.14-11.09,6.44-16.58,2.04-4.85,3.26-9.89,5.35-14.72.73-1.68.98-3.41,1.62-5.08,2.08-5.46,4.03-10.94,5.44-16.55,1.01-4.02,2.34-7.99,3.52-11.98,1.38-3.63,2.65-7.29,3.53-11.03.54-.77,1.22-1.36,1.26-2.45.06-1.6.59-3.3,1.44-4.76,1.36-2.32,1.91-4.81,2.56-7.23,1.62-6.06,3.02-12.15,4.78-18.18.89-3.07-1.6-5.7-5.78-6.26-3.22-1.16-6.32-2.57-9.92-2.9-1.35-1.62-3.79-1.86-5.72-2.59-4.25-1.61-8.47-3.21-12.62-5-6.3-2.72-12.52-5.57-18.93-8.12-7.32-2.91-13.93-6.6-20.23-10.68-5.86-3.8-11.03-8.16-14.51-13.52-2.19-3.38-4.46-6.72-5.75-10.54-1.15-3.38-2.38-6.7-2.75-10.18-.53-5.01,1.41-9.53,4.56-13.79.29-.4.58-.8.79-1.23,2.92-6.19,9.19-8.99,16.56-11.16,7.83-2.3,15.5-1.64,23.3-.52,10.83,1.55,21.67,2.86,32.72,3.03,4.6.07,9.02,1.33,13.46,2.31,5.92,1.3,11.86,2.55,17.79,3.82,3.65,1.19,7.3,2.37,11.2,2.94,3.26,1.26,6.61.61,8.71-1.78.67-.76,1.14-1.64,1.58-2.51,6.02-11.9,12.09-23.78,17.98-35.72,1.92-3.89,4.59-7.49,6.7-11.28,4.57-8.2,11.12-15.41,17.37-22.77,2.8-3.3,6.39-5.93,10.73-7.89,4.63-2.09,9.5-3.73,14.71-4.59,3.1-.51,6.12-.26,8.94,1.26,3.75,2.03,7.2,4.33,10.63,6.68,3.04,2.08,5.61,4.5,8.18,6.94,4.52,4.28,9.21,8.41,14.26,12.31,2.92,2.26,5.36,4.99,7.57,7.73,8.26,10.31,17.6,19.99,26.81,29.75.35.37.67.77,1.01,1.15,3.6,3.9,7.2,7.79,10.8,11.69.4.44.7.96,1.51,1.02,0,.94.78,1.57,1.38,2.28,3.34,3.94,6.62,7.94,10.12,11.77,3.96,4.33,7.12,9.07,11.24,13.29,2.12,2.18,4.7,3.98,8.52,4.32,3.9.35,7.8.68,11.69,1,9.45.79,18.76,2.24,28.06,3.72,1.99.32,4,.58,6.29.91-.6-2.78-.76-5.41-1.46-7.99-1.87-6.87-2.38-13.78-.94-20.76.27-1.3,1.11-2.39,1.33-3.71.6-3.61,2.9-6.93,3.13-10.62.09-1.4.93-2.61,1.42-3.9.61-1.62.4-3.33,1.19-4.91.33-.66.46-1.32,1.3-1.74,2.08-1.06,2.36-2.72,1.71-4.36-.74-1.86-.3-3.35,1.21-4.75.41-.03.67-.12.38-.49.12-1.79.3-3.58-.28-5.34-.34-1.04-.09-1.95.79-2.83,1.34-1.35,1.8-2.98,1.29-4.63-1.16-3.7-.6-7.26.99-10.79,3.46,1.13,6.37,2.93,9.26,4.76-1.59,4.63-2.07,9.41-2.87,14.14-1.11,6.52-2.52,13-3.89,19.49-2.02,9.6-4.36,19.19-4.31,28.99.03,5.4.82,10.71,3.13,15.84.37.83.06,1.84.45,2.74,1.1,2.56,1.83,5.25,3.87,7.5.36.4.4.85.56,1.29.89,2.4,2.54,3.23,5.69,2.96,4.1-.36,8.18-.81,12.22-1.52,5.58-.98,11.27-1.29,16.92-1.85,10.44-1.03,20.72-2.72,30.98-4.54,5.82-1.03,11.52-2.55,17.38-3.39,3.99-.57,7.6-2.11,11.78-2.26,3.27-.12,6.09-1.93,8.9-3.3,1.46-.71,1.71-2.57.73-4.06-1.19-1.8-2.5-3.55-3.76-5.32-1.73-2.44-3.31-4.9-4.38-7.62-1.02-2.58-3.31-4.69-5.39-6.8-1.86-1.9-3.26-3.98-4.23-6.2-1.08-2.5-1.15-5.23-2.43-7.72-.24-.46,0-1.08.02-1.62,1.37-.01,2.65.45,4.04.46,2.82.01,5.05-1.01,7.19-2.29.93-.55,1.65-1.34,2.86-1.57.78,5.7,2.33,11.23,5.79,16.31,2.66,3.9,5.33,7.79,8.08,11.65,1.74,2.44,3.58,4.84,5.44,7.22,1.23,1.59,2.31,2.08,4.35,1.47,3.76-1.12,7.64-1.95,11.43-2.96,5.42-1.43,10.73-3.24,16.43-4.01,1.35-.18,2.53-1.05,3.88-1.32,4.61-.91,8.88-2.63,13.47-3.53,4.61-.91,8.9-2.49,13.36-3.71,4.58-1.25,9.14-2.55,13.74-3.76,15.38-4.06,30.62-8.42,45.67-13.23,5-1.6,9.99-3.21,15.12-4.55.9-.23,1.68-.75,2.55-1.07,4.17-1.53,8.44-2.76,12.9-3.73,2.86-.62,5.62-1.77,8.45-2.62,9.81-2.95,19.63-5.89,29.5-8.72,4.29-1.23,8.52-2.74,12.75-4.18,4.85-1.64,9.56-3.63,14.87-4.27,9.95-3.66,20.42-6.27,30.39-9.9,4.95-1.8,9.62-3.98,14.28-6.18,4.64-2.2,9.2-4.51,13.7-6.9,2.42-1.28,4.35-2.82,5.85-4.77,1.04-1.35,1.39-2.74.77-4.26-.31-.74-.57-1.5-.95-2.22-2.79-5.25-5.73-10.45-8.41-15.75-1.78-3.52-3.69-7.06-5.96-10.43-1.3-1.92-1.89-4.07-3.21-5.97-5.47-7.92-9.42-16.39-13.96-24.64-2.83-5.14-5.59-10.3-8.28-15.49-.76-1.46-1.78-2.82-2.86-4.08-5.62-6.57-10.76-13.38-16.33-19.97-.33-.39-.65-.79-1.04-1.14-1.51-1.39-2.79-1.63-4.98-.92-.72.23-1.44.51-2.1.84-14.12,7.11-28.94,13.29-42.97,20.51-20.34,10.48-41.3,20.13-62.35,29.66-8.13,3.68-15.78,7.93-23.11,12.55-16.04,10.11-31.97,20.33-46.9,31.49-8.03,6-15.93,12.12-23.93,18.15-8.23,6.21-15.36,13.15-21.82,20.56-.45-1.83.34-3.58.7-5.34.84-4.1,1.29-8.22,1.56-12.36.05-.72.17-1.39.65-2.01,13.14-9.77,26.32-19.51,39.24-29.46,6.58-5.06,14-9.35,20.97-14.06.81-.55,1.79-.97,2.35-1.74,2.95-.49,5.9-1.01,8.86-1.48,9.43-1.48,16.74-5.33,21.49-12.12,1.22-1.75,1.23-3.74,2.02-5.56,4.7-2.27,9.36-4.6,14.13-6.77,3.2-1.46,6.3-3.11,9.91-3.94,1.51-.35,2.5-1.38,3.82-2.01,28.79-13.78,57.24-28.01,85.89-41.97.92-.45,1.77-.98,2.66-1.47,2.29-1.25,2.4-2.98.39-4.55-.79-.61-1.55-1.22-2.62-1.46-6.6-1.46-12.68-3.95-18.84-6.25-6.12-2.28-12.6-3.44-19.12-4.54-19.58-3.3-39.15-6.63-58.76-9.81-12.58-2.04-25.2-3.88-37.82-5.76-10.8-1.61-21.68-2.66-32.66-3.12-2.47-.1-4.92.02-7.34.32-5.6.7-11.2,1.41-16.78,2.23-5.11.75-10.2,1.6-15.28,2.49-5.03.88-9.51,2.9-14.2,4.49-.48-2.87-1.08-5.74-1.19-8.64,1.94,0,3.67-.64,5.39-1.23,1.45-.5,2.93-.87,4.49-1.04,2.45-.25,4.77-.83,7.13-1.41,3.08-.76,6.3-1.16,9.48-1.65,13-2,26.1-2.46,39.3-1.69,6.85.4,13.72.68,20.61.67,9.54,0,19.02.66,28.48,1.68,3.3.36,6.65.57,9.98.67,8.5.25,16.75,1.68,24.97,3.28,4.79.93,9.58,1.91,14.34,2.94,9.14,1.97,18.31,3.86,27.36,6.06,5.87,1.42,11.71,2.93,17.59,4.31,6.55,1.53,12.75,3.6,18.46,6.6,3.46,1.82,6.78,3.68,8.3,6.98.51,1.11,1.91,1.21,3.37.6,4.59-1.92,9.32-3.39,14.52-4.1,3.87-.52,7.65-1.66,11.6-1.96,8.21-.64,16.14-.07,23.75,2.86,3.39,1.31,6.55,2.78,9.69,4.43,4.86,2.56,8.48,6.11,12.79,9.09-.01,5.56-.02,11.11-.03,16.67-.32.05-.65.11-.97.16-4.13-4.18-8.1-8.46-12.43-12.51-5.11-4.77-10.44-9.4-17.28-12.71-1.73-.84-3.54-1.39-5.52-1.23-9.31.79-18.44,2.18-26.71,5.9-3.96,1.79-5.07,1.52-1.63,5.57,4.93,5.8,9.96,11.54,15.02,17.27,4.96,5.61,8.67,11.75,12.11,18.01,4.75,8.65,9.58,17.27,14.71,25.79,5.92,9.81,11.73,19.66,17.59,29.5.51.85,1.15,1.64,1.59,2.51.72,1.43,1.96,2.05,3.86,1.82-.03.94-.09,1.88-.09,2.82,0,22.9,0,45.8,0,68.69,0,1.41-.03,2.82-.05,4.23-3.87,4.71-7.5,9.56-11.66,14.09-7.69,8.37-14.7,17.11-21.88,25.75-7.65,9.21-16.27,17.86-24.34,26.83-10.32,11.48-21.92,22.15-32.83,33.26-.42.43-.8.88-1.21,1.33-2.66.18-5.23-.47-7.86-.59-3.99-.19-7.96-.61-11.94-.93.81-1,1.79-1.98,3.05-2.52,2.98-1.29,4.51-3.42,6.03-5.66,2.1-3.11,4.78-5.93,7.58-8.66,3.74-3.64,7.34-7.38,11.36-10.81,5.58-4.75,9.67-10.38,14.99-15.28,5.34-4.91,10.59-9.9,15.24-15.26,2.57-2.96,5.08-5.96,7.57-8.97,7.49-9.03,14.17-18.52,22.68-26.96,8.12-8.05,12.55-17.47,17.52-26.75.37-.68.39-1.36.37-2.07-.22-6.9-.42-13.8-.7-20.69-.06-1.4-.29-2.82-.67-4.19-.63-2.28-2.64-3.03-5.34-2.1-.98.34-1.91.77-2.85,1.18-.78.34-1.56.67-2.3,1.05-18.52,9.67-38.84,16.34-59.36,22.67-17.08,5.26-34.36,10.06-51.59,14.99-8.17,2.34-16.05,5.27-24.13,7.77-4.91,1.52-9.96,2.81-14.93,4.26-12.25,3.56-24.46,7.23-36.76,10.69-11.34,3.19-22.77,6.2-34.2,9.19-2.55.67-4.8,1.86-7.38,2.44-5.32,1.19-10.67,2.3-15.94,3.65-5.59,1.44-11.1,2.98-16.41,5.05-2.11.82-4.36,1.59-6.61,2.27-2.23.68-2.28,1.49-1.6,3.48.97,2.84,2.43,5.46,4.28,8,.96,1.32,1.45,2.87,2.6,4.14,1.78,1.98,4.47,2.36,6.75.79.68-.47,1.42-.81,2.16-1.15,4.92-2.29,9.89-4.51,14.78-6.83,11.49-5.46,23.83-7.11,36.91-5.23,7.8,1.12,14.87,3.74,21.55,7.09,2.21,1.11,4.24,2.24,5.65,4.14,1.56,2.09,4.03,3.62,6.33,5.21,2.89,1.99,5.78,3.98,8.72,5.91,1.37.9,2.27,2.12,3.5,3.12,3.43,2.8,7.55,5.01,10.83,7.91,4.47,3.95,9.34,7.58,14.13,11.27,2.95,2.28,6.19,4.35,8.91,6.8,3.74,3.37,7.82,6.49,11.12,10.17-3.24.76-6.64.76-9.92,1.37-1.48.28-2.95.78-4.54.51-5.38-5.18-10.74-10.37-17.06-14.85-1.52-1.08-3.17-2.06-4.68-3.16-1.73-1.26-3.41-2.55-4.86-4.03-1.57-1.6-3.82-2.65-5.73-3.97-2.3-1.58-4-3.71-6.38-5.13-4.49-2.67-6.92-6.52-9.98-10.01-1.83-2.08-4-3.9-6.45-5.39-2.3-1.39-4.34-2.92-6.08-4.68-2.31-2.35-5.26-3.66-8.9-4.18-7.13-1.03-14.21-1.18-21.3.31-3.82.8-7.25,2.28-10.65,3.76-6.96,3.03-13.77,6.26-21.22,8.51-1.27.38-2.46.98-3.63,1.55-1.37.67-1.65,1.7-1.47,2.93.13.89.59,1.64,1.02,2.42,5.53,10.26,13.54,19.2,22.61,27.62,5.76,5.35,11.79,10.49,18.18,15.37,9.94,7.6,19.16,15.73,28.01,24.13-.7,1.51-2.4,2.37-3.64,3.51-1.82,1.68-3.25,3.62-5.36,5.1-1.52-1.54-3.15-3.01-4.53-4.62-4.78-5.57-10.15-10.77-15.65-15.89-.88-.82-1.91-1.56-2.44-2.61-.2-.4-.7-.77-1.18-1.02-4.22-2.24-7.58-5.15-11.05-8.08-4.17-3.53-7.89-7.37-12.16-10.81-.48-.39-1.02-.75-1.59-1.03-4.52-2.24-8.08-5.27-10.76-8.88-3.91-5.26-8.16-10.34-12.61-15.31-.85-.95-1.54-2-2.27-3.02-1.13-1.58-2.43-1.96-4.57-1.18-1.07.39-2.15.82-3.07,1.38-4.7,2.85-9.94,5.01-14.87,7.55-4.6,2.38-9.2,4.81-13.37,7.69-1.72,1.19-3.62,2.17-5.86,2.61-1.19.23-2.11.79-3.07,1.34-10.53,6.03-20.72,12.44-31.19,18.53-13.58,7.88-27.46,15.43-41.21,23.12-.32.18-.65.35-.97.54-1.97,1.14-1.99,1.15-.84,2.94,2.7,4.21,5.56,8.36,7.17,12.97,1.3,3.7,1.8,7.4.35,11.09-.94,2.4-2.8,4.46-5.09,6.19-7.88,5.98-17.19,9.8-27.84,11.53-2.11.34-4.27.5-6.41.7-2.58.24-2.08.28-2.01,2.02.26,6.71,4.49,11.71,10.89,15.67,10.39,6.41,21.67,11.59,33.91,15.43,11.12,3.49,22.29,6.89,33.17,10.84,6.33,2.3,12.56,4.77,19.25,6.38,7.72,1.85,15.5,3.49,23.36,4.92.48.09.99.09,1.43.25,5.43,1.93,11.19,1.86,16.95,1.82,3.17-.03,5.98-.71,8.57-2.35,8.22-5.22,16.71-10.18,24.69-15.64,4.84-3.31,9.66-6.63,14.65-9.79,3.2-2.02,6.5-4.02,9.41-6.22,2.78-2.1,6.41-3.5,8.5-6.23.69-.9,1.85-1.68,3.01-2.21,1.4-.64,2.65-1.43,3.57-2.39,2.59-2.69,6.12-4.51,9.25-6.69,1.37,2.55,1.68,5.35,2.96,7.94.92,1.86,1.56,3.8,2.32,5.71-1.43.84-2.7,1.83-3.84,2.92-3.37,1.27-5.47,3.66-7.9,5.75-.2.13-.39.27-.59.4l.04-.03c-.49.42-1.61.48-1.26,1.39h0c-1.11.03-1.96.28-1.79,1.37v.04c-3.21,1.71-5.79,4.03-8.88,5.81-4.06,2.33-7.88,4.88-11.66,7.45-3.41,2.32-6.87,4.6-10.17,7.05-4.81,3.57-9.71,7.11-15.3,10.01-6.78,3.51-14.03,4.91-21.92,4.02-8.73-.98-17.48-1.83-26.15-3.15-6.49-.99-12.75-2.58-18.99-4.27-5.43-1.47-10.41-3.78-15.68-5.52-7.95-2.62-15.7-5.65-23.92-7.76-4.75-1.22-9.29-2.87-13.85-4.46-11.66-4.07-22.86-8.84-33.5-14.43-6.95-3.65-13.32-7.76-17.9-13.42-2.19-2.71-4.04-5.55-5.52-8.55-.64-1.29-.72-2.69-1.36-4-.44-.9-1-1.14-2.12-1.18-4.94-.18-6.52.52-8.25,4.37-2.29,5.08-4.06,10.3-5.75,15.53-2.44,7.56-4.9,15.11-7.12,22.71-1.01,3.46-2.48,6.8-3.6,10.23-1.09,3.34-2.35,6.65-3.72,9.92-1.22,2.9-2.95,5.67-4,8.6-1.34,3.75-3.95,7.09-5.09,10.94-.53,1.77-1.83,3.55-2.56,5.38-1.74,4.4-4.14,8.6-6.07,12.94-1.4,3.13-3.36,6.15-4.88,9.27-2.69,5.53-6.61,10.5-10.33,15.58-2.32,3.16-4.82,6.21-6.76,9.58-1.01,1.76-2.47,3.49-3.73,5.23-1.44,2-2,4.34-3.71,6.24-1.19,1.32-2.21,2.7-3.02,4.19-1.54,2.83-1.15,4.51,1.56,6.74.4.33.66.78,1.09,1.06,2.44,1.57,4.63,3.39,7.35,4.68,2.01,1.82,4.61,3.05,6.98,4.51,1.92,1.18,3.85,2.35,5.81,3.49.76.44,1.39,1.12,2.51,1,1.5,1.63,3.8,2.52,5.73,3.7,9.97,6.12,20.12,12.06,30.22,18.04,6.54,3.87,13.22,7.61,19.64,11.61,8.6,5.35,7.9,5.16,8.11,12.94.07,2.78-.23,5.59-.93,8.34-.8,3.15-1.85,6.25-3.1,9.3-5.13.21-10.26.16-15.39.03.05-1.55.1-3.11.15-4.66,1.01-2.77-.31-5.4-.76-8.09-2-1.42-2.68-3.61-5.15-4.88-3.86-1.98-7.32-4.46-10.97-6.7-15.62-9.6-31.25-19.18-46.87-28.78-.62-.38-1.21-.8-1.81-1.2-3.12-1.88-6.23-3.77-9.37-5.64-1.17-.7-2.22-1.55-3.66-1.92-.09-.14-.14-.31-.28-.41-2.75-2.11-2.77-2.13-5.44.05-7.05,5.75-13.85,11.69-19.8,18.21-.6.66-1.6,1.19-1.53,2.17v-.02c-.93-.1-1,.46-1.16.96h.02c-.54.18-.74.51-.61.97l.06-.04c-.2.17-.41.34-.61.51-1.51,1.03-2.33,2.48-3.5,3.71-2.02,2.13-4.07,4.23-6.45,6.1-.93.73-1.4,1.68-2.28,2.41-.42,0-.71.11-.8.46l.05-.04c-.39.03-.61.2-.65.51l.05-.04c-.39.02-.61.18-.64.5l.02-.03c-3.42,2.15-6.83,4.3-10.25,6.45-5.75,2.59-11.44,5.27-17.65,7.13-.24.07-.41.31-.61.47-.71-.13-1.37.05-2,.25-4.46,1.44-9.08,2.51-13.73,3.37-3.29.61-6.81.57-10.24.41-7.64-.35-15.28-.81-22.92-1.17-17.64-.83-35.31-1.2-52.98-1.33-10.41-.07-20.8-.45-31.14-1.47-7.45-.73-14.79-2-22.19-3.01-3.95-.54-7.89-1.24-11.94-1.24-3.04-.7-5.92-.02-8.74.77-1.08.3-2.01,1.05-2.37,1.96-1.01,2.57-2.19,5.12-2.54,7.83-1.22,1.86-1.28,3.95-1.79,5.95h-1.18c-.78-.72-1.83-.41-2.76-.42ZM530.49,412.19c2.83.07,4.04-1.51,2.75-3.52-1.47-2.29-3.18-4.48-4.96-6.63-1.29-1.55-2.85-2.97-3.73-4.73-.24-.48-.79-.65-1.41-.67.05-.5-.26-.9-.59-1.29-1.94-2.25-3.87-4.5-5.83-6.73-.38-.43-.76-.93-1.57-.95.1-.87-.59-1.46-1.15-2.1-11.69-13.1-23.98-25.82-37.22-37.96-2.73-2.51-5.76-4.81-8.12-7.59-.8-.93-2.16-1.55-3.19-2.37-2.89-2.33-5.6-4.82-8.6-7.04-4.81-3.55-10.01-6.76-15.1-10.06-1.59-1.04-3.28-2-5.03-2.87-5.19-2.56-8.26-2.1-11.86,1.75-1.99,2.13-3.8,4.33-5.25,6.75-4.8,7.97-10.2,15.71-14.58,23.84-3,5.57-5.61,11.24-7.62,17.11-.97,2.82-2.43,5.6-4.19,8.17-3.25,4.75-4.91,9.8-5.83,15.11-.28,1.57-.26,2.9.92,4.21.54.6,1.07,1.08,2.06,1.18.77.08,1.52.33,2.3.41,16.62,1.63,32.94,4.62,49.35,7.14,12.69,1.95,25.33,4.12,38.06,5.87,7.54,1.04,15.24,1.21,22.89,1.54,3.72.05,7.4.69,11.13.58,5.45.48,10.92.72,16.39.85ZM362.09,480.71c-3.75-1.59-6.85-.65-8.6,2.46-2.51,4.47-3.38,9.29-4.84,13.99-.42,1.36-.87,2.71-1.3,4.07-1.57,3.52-3.15,7.03-4.72,10.55-.36.81-.8,1.6-.61,2.5-1.19.86-1.33,2.1-1.59,3.22-1.17,5.09-3.37,9.92-5.39,14.81-2.52,6.08-4.32,12.33-6.38,18.51-3.19,9.58-6.24,19.19-9.33,28.8-1.9,5.91-3.42,11.9-5.94,17.67-.9,2.06-1.95,4.09-3.04,6.1-.74,1.38-1.31,2.78-1.62,4.25-.51,2.39.65,3.69,3.61,4.16,6.74,1.08,13.54,1.78,20.38,2.28,2.34.17,4.67.45,7.01.68,10.4,1.68,20.33,4.52,30.08,7.79,5.36,1.87,10.24,4.36,14.76,7.32,3.69,2.42,6.74,5.32,9.92,8.13,1.5,1.32,2.97,2.65,4.72,3.81,1.85,1.23,3.16,2.97,4.9,4.33,2.86,2.24,5.98,4.28,8.8,6.55,15.13,12.19,31.89,22.85,48.67,33.51,4.84,3.07,10.01,5.8,15.31,8.36,2.08,1.01,4.3,1.96,6.01,3.31,1.64,1.29,3.13,2.77,4.57,4.24,2.35,2.4,5.33,2.35,7.91-.02.84-.78,1.57-1.6,2.2-2.49,7.05-10.13,14.34-20.16,21.09-30.41,4.42-6.71,7.63-13.89,10.92-21.02,4.67-10.13,8.49-20.48,13.04-30.63,1.32-2.96,1.75-6.18,3.96-8.88,1.16-5.21,4.3-10,4.79-15.37.32-3.43,1.37-6.8,2.43-10.14,1.52-4.76,2.99-9.53,4.86-14.2,1.38-3.46,2.55-6.96,4.01-10.4,1.31-3.1-.64-6.05-4.48-7.14-1.94-.55-3.92-.99-5.94-1.32-6-.98-11.52-3.02-17.17-4.82-8.26-2.64-16.46-5.39-24.59-8.28-8.65-3.07-17.35-6.05-25.96-9.2-6.75-2.47-13.6-4.82-20.4-7.23-11.46-4.07-22.55-8.73-33.46-13.65-6.73-3.03-13.67-5.75-20.64-8.37-4.5-1.69-8.82-3.81-13.69-4.86-3.79-1.61-7.68-3.05-11.61-4.43-1.87-.66-3.68-1.42-5.52-2.13-5.69-2.15-11.54-4.01-17.1-6.38ZM339.25,455.13c1.63.17,2.86-.24,3.63-1.46,1.45-2.28,2.66-4.59,3.53-7.09,1.84-5.3,4.13-10.5,6.38-15.71,2.98-6.9,6.39-13.72,8.61-20.82.09-.3.13-.62.19-.93.63-3.47-.37-4.7-4.76-5.82-3.57-1.25-7.39-1.53-11.19-1.91-3.01-.73-6.16-.89-9.25-1.31-5.37-.74-10.76-1.35-16.14-2.01-6.07-.75-12.14-1.54-18.22-2.24-7.94-.92-15.9-1.72-23.84-2.66-5.16-.61-10.38-.57-15.53-1.11-3.29-.34-5.39,1.99-6.09,4.18-.74,2.33,0,4.62.56,6.93.64,2.58.77,5.26,1.59,7.8,1.55,4.79,4.9,8.82,9.22,12.32,6.86,5.55,14.55,10.3,23.1,14.06,10.61,4.67,21.29,9.25,32.3,13.3.7.26,1.36.64,2.2.61,3.56,1.48,7.23,2.74,11.2,3.32.76.38,1.63.46,2.49.55ZM275.85,646.47c.71-.81.81-1.73.85-2.67,1.65-3.51,2.76-7.14,3.9-10.76.14-.45.17-.93.17-1.4.03-2.2-1.51-3.37-4.22-3.15-4.96.41-9.91.86-14.87,1.29-5.86.45-11.71.89-17.57,1.35-7.13.56-14.25,1.22-21.39,1.67-9.24.58-18.19,2.31-27.13,4.12-6.17,1.25-12.31,2.62-18.5,3.82-2.62.51-5.03,1.32-7.24,2.51-8.49,4.58-16.18,9.9-23.3,15.79-6.34,5.24-9.54,11.54-10.9,18.6-1.19,6.18-.44,12.36-.29,18.54.18,6.97.52,13.94.97,20.9.39,6.1.88,12.2,2.21,18.23.51,2.29.93,4.58,1.64,6.85.99,3.13,3.35,5.07,7.03,6.07,3.15.85,6.36,1.58,9.56,2.32,1.88.43,3.79.78,5.69,1.17,4.52,1.16,9.07,2.23,13.79,2.73,4.2,1.07,8.57,1.36,12.91,1.76,15.14,1.39,30.36,1.35,45.57,1.5,4.37.04,6.31-1.07,7.43-4.43,1.08-3.25,1.87-6.56,2.86-9.83,2.33-7.66,4.53-15.36,6.65-23.05,3.33-12.06,6.56-24.14,10.53-36.08,1.4-4.22,2.9-8.41,4.71-12.55.69-1.56,1.36-3.25,1.49-4.98,2.09-4.66,3.56-9.46,5.27-14.2.66-1.84,1.75-3.62,1.66-5.6l-.02.04c.4-.05.54-.25.5-.55ZM408.87,765.63c7.22.34,14.47.33,21.68.89,1.61.13,3.33.41,4.84-.43,1.82.1,3.12-.81,4.53-1.49,5.76-2.81,10.46-6.59,14.97-10.53,6.12-5.33,11.61-11.04,16.05-17.36,1.58-2.26,3.46-4.37,5.3-6.5,1.29-1.48,2.43-3.03,3.21-4.74.93-2.04.43-3.84-1.23-5.49-1.49-1.48-3.34-2.66-5.21-3.79-11.81-7.16-23.15-14.78-34.76-22.14-20.39-12.93-39.77-26.77-58.32-41.37-3.48-2.74-6.95-5.53-11.26-7.5-2.95-2.1-6.28-3.7-9.92-4.92-7.99-3.21-16.08-6.19-24.87-7.74-3.81-1.07-7.82-1.36-11.76-1.83-3.47-.41-6.9-1.14-10.45-1.08-2.92-.67-5.92-.85-8.92-1.01-1.85-.1-3.14.83-3.95,2.05-.77,1.16-1.31,2.41-1.96,3.63-1.55,2.82-1.81,5.9-2.75,8.84-1.32,4.15-2.53,8.33-3.79,12.49-1.91,5.74-3.85,11.48-5.74,17.23-6.92,21.11-14.11,42.16-20.6,63.35-1.42,4.63-2.83,9.26-4.49,13.83-.45,1.26-1.24,2.43-1.78,3.67-1.79,4.12-.13,6.05,5.35,6.31,2.43.7,5.03.64,7.53.79,4.28.25,8.54.78,12.85.63,4.55.63,9.18.54,13.77.75,10.46.49,20.93.75,31.4,1.11,4.3.15,8.61.33,12.91.5.37.36.75.39,1.15.02,7.63.2,15.27.38,22.9.59,9.59.27,19.18.56,28.77.83,4.6.13,9.2.25,13.8.38l.75.03ZM412.76,485.38c.53.2,1.06.4,1.67.26.57.97,1.83,1.13,2.87,1.48,6.88,2.35,13.38,5.25,19.73,8.4,3.34,1.65,6.68,3.29,10.04,4.91,5.89,2.84,11.9,5.49,18.32,7.5.99.31,1.96.75,2.81,1.26,5.73,3.42,12.23,5.69,18.71,7.98.89.31,1.64.77,2.53,1.08,10.33,3.69,20.18,8.12,30.26,12.21,6.33,2.57,13,4.52,19.78,6.2,4.34,1.07,8.66,2.24,13.02,3.25,3.37.78,6.78,1.46,10.22,2.02,3.57.58,6-.56,7.4-3.31,1.14-2.22,2.33-4.44,3.22-6.73,1.75-4.52,4.93-8.51,7.28-12.8.71-1.3.76-2.65,1.37-3.93.63-1.3.89-2.72,1.24-4.1,1.58-6.2,2.67-12.49,5.2-18.52-.28-2.46,1.23-4.61,1.91-6.91,1.4-4.73,0-9-3.05-13.04-3.5-4.63-7.31-9.1-11.07-13.6-1.73-2.07-3.62-4.05-4.98-6.34-.94-1.58-2.68-2.84-3.93-4.31-4.91-5.76-9.77-11.56-14.66-17.34-1.04-1.24-2.18-2.41-3.47-3.5-3.07-2.58-6.84-3.92-11.26-3.97-10.21-.1-20.42-.46-30.61-.91-1.05-.05-2.15-.23-3.07.4-1.93-.83-4.1-.66-6.17-.88-1.44-.15-2.92-.07-4.39-.09-3.37-.59-6.83-.52-10.24-.79-12.3-.96-24.6-1.9-36.83-3.33-16.39-1.9-32.6-4.49-48.5-8.23-3.77-.89-7.6-1.52-11.51-1.87-3.6-.33-5.19.31-6.87,2.88-6.4,9.8-11.41,20-14.03,30.9-1.53,6.37-3.38,12.69-5.08,19.04-.63,2.34.18,3.84,2.83,5.14,7.58,3.7,15.52,6.85,23.55,9.86,3.49,1.31,6.9,2.75,10.52,3.84,5.08,1.95,10.16,3.9,15.25,5.85ZM612.42,441.54c-1.49,4.86-3.45,9.62-4.66,14.53-1.17,4.75-2.17,9.52-2.48,14.37-.22,3.5.6,6.8,3.07,9.85,3.62,4.48,6.63,9.24,9.81,13.92,2.52,3.72,5.25,7.35,8.17,10.88,1.44,1.75,1.25,1.61,3.29.48,12.21-6.71,24.22-13.66,36.69-20.05,18.4-9.43,35.74-20.03,53.46-30.2,6.46-3.71,13.05-7.26,19.79-10.63,1.42-.71,2.77-1.48,4.01-2.39,2.92-2.13,3.15-3.9,1.3-6.73-1.22-1.85-2.24-3.8-3.17-5.77-1.02-2.16-1.92-4.49-4.43-6.01-1.58-.96-3.18-1.37-5.2-.86-6.72,1.68-13.51,3.18-20.28,4.69-6.26,1.4-12.7,2.41-19.1,3.47-10.45,1.73-21.09,2.42-31.62,3.69-7.45.9-14.86,1.94-22.27,3.02-6.04.88-11.94-.02-17.72-1.32-2.1-.47-3.6-1.87-5.28-2.94-.38-.24-.78-.45-1.57-.91-.5,3.25-.92,6.11-1.78,8.91ZM597.87,433.17c-.15-1.46-1.72-1.95-3.02-2.57-3.4-1.6-7.2-2.25-11.01-2.81-3.65-.54-7.33-.93-11.02-1.31-.98-.1-2.36-.76-2.94.23-.58,1.01-1.27,2.18-.58,3.39.24.42.61.8.93,1.2,5.92,7.48,12.15,14.79,18.37,22.12.38.45.76.94,1.26,1.3,1.63,1.17,3.54.96,4.79-.49.22-.25.34-.56.52-.84,1.1-1.64,1.63-3.46,2.7-5.13,1.29-2,.4-4.29.69-5.74.32-3.61-.39-6.47-.7-9.36ZM615.12,549.22c2.57-.9,4.96-1.96,7.29-3.11,6.38-3.14,8.09-7.84,5.81-13.85-2.5-2.61-3.17-5.89-5.07-8.72-.23-.34-.4-.71-.71-.99-.75-.67-1.36-1.03-2.54-.19-7.3,5.18-12.38,11.48-15.32,18.88-1.12,2.82-2.18,5.66-2.78,8.77,4.6.58,8.88.77,13.32-.79ZM586.1,544.67c-.32-2.06,1.14-3.6,2.49-5.11,2.36-2.62,4.33-5.39,6.06-8.31,1.55-2.61,3.4-5.12,5.22-7.62,1.81-2.49,4.45-4.36,7.45-5.91,2.3-1.2,4.62-2.37,6.9-3.6,1.8-.97,2-1.43.82-2.82-3.01-3.55-5.36-7.41-8.17-11.05-.74-.95-1.66-1.73-2.78-2.39-2.68-1.56-3.68-1.36-4.66,1.25-.81,2.16-1.29,4.4-1.97,6.59-1.34,4.31-2.99,8.56-4.56,12.82-2.66,7.25-6.04,14.3-8.77,21.53-.51,1.35-1.02,2.7-.85,4.14.1.82.56,1.48,1.61,2.11.51-.62,1.32-.93,1.21-1.64Z"/>
  <path class="st2" d="M727.2,180.64c.83,6.62,1.63,13.25,2.51,19.86.81,6.07,1.83,12.12,3.31,18.12.77,3.12,2.38,4.31,6.45,4.27,13.79-.14,27.39,1.37,41.02,2.78,7.42.77,14.68,1.9,21.8,3.78,5.06,1.34,9.6,3.36,13.96,5.75,6.08,3.33,10.51,7.8,14.25,12.76,2.23,2.95,3.34,6.16,3.3,9.62-.02,1.72,0,3.44,0,5.17-.8,1.82-.8,3.81-2.02,5.56-4.75,6.79-12.05,10.64-21.49,12.12-2.96.47-5.9.99-8.86,1.48-5.81.76-11.54,1.87-17.03,3.52-3.53,1.06-7.12,1.66-10.8,1.97-9.06.77-18.11,1.66-27.25,1.61-4.91-.03-7.49,2.31-7.51,5.89-.05,10.57-.34,21.13-.53,31.7-.03.34.16.49.59.44,0,0-.01.14-.01.14-.48.61-.6,1.28-.65,2.01-.26,4.14-.71,8.26-1.56,12.36-.36,1.75-1.15,3.51-.7,5.34-1.52,2.23-1.4,4.8-2.37,7.15-.46,1.1-.78,2.25-1.07,3.39-1.12,4.51-4,8.21-8.03,11.41-.76.6-1.42,1.27-2.13,1.91-1.21.23-1.94,1.01-2.86,1.57-2.14,1.28-4.37,2.3-7.19,2.29-1.39,0-2.67-.47-4.04-.46-3.57-1.05-7.25-1.86-10.76-3.07-4.69-1.62-8.99-3.82-13.47-5.74-3.08-1.32-6.39-2.22-9.44-3.58-2.31-1.03-4.73-1.91-6.85-3.18-11.76-7.06-24.47-12.97-36.84-19.29-1.31-.67-2.49-1.53-4.03-1.89-2.89-1.83-5.8-3.63-9.26-4.76-.42-.67-1.23-.99-1.96-1.39-7.28-4.01-14.62-7.95-21.66-12.22-3.08-1.86-6.25-2.27-9.94-1.39-11.29,2.68-22.86,4.35-34.43,6.02-2.23.32-4.52.19-6.77.07-2.21-.11-3.48-1.17-4.14-2.86-2.28-5.78-3.95-11.64-4.42-17.7-.3-3.84-1.36-7.59-2.05-11.39-.59-3.27-2.43-6.19-3.51-9.31-.48-1.38-2.11-2.57-3.68-3.52-8.91-5.42-16.97-11.68-26.14-16.85-3.75-2.11-6.94-4.82-10.43-7.17-3.88-2.62-7.29-5.41-9.97-8.82-2.14-2.73-2.8-5.75-1.91-8.82.65-2.22,1.68-4.4,3.28-6.38,5.2-6.41,11.82-11.51,20.77-14.44,3.21-1.05,6.54-1.88,9.99-2.32,2.05-.26,3.93-.91,5.78-1.63,1.18-.46,1.75-1.14,1.86-2.19.22-2.04.12-4.08-.08-6.11-.75-7.82-1.97-15.59-3.16-23.37-1.3-8.48-2.34-16.99-2.49-25.54-.14-8.63-.09-17.26-.27-25.88-.21-10.15.88-20.19,3.33-30.16,1.54-6.23,2.31-12.56,3.02-18.88.37-3.35.14-3.64-4.26-5.09-5.16-1.7-10.51-3.03-15.9-4.23-.66-.15-1.3-.35-1.95-.53,4.35-1.82,8.68-3.67,12.82-5.8,2.18-1.13,4.51-2.07,6.5-3.44.5-.34,1.12-.64,1.84-.66q2.7.64,3.56-1.74c4.41-1.38,8.4-3.46,12.72-4.98.75,1.65-.75,2.98-1.13,4.45-.62,2.37.11,4.22,1.88,6.05,1.18,1.22,2.91,1.5,4.48,1.9,32.39,8.12,64.87,16.05,95.87,27.28,9.53,3.46,19.56,4.69,30.02,5.01,12.73.39,24.66-2.36,36.81-4.48,1.65-.29,2.55-1.14,2.8-2.41.35-1.78.55-3.57.22-5.38-1.84-9.92-3.13-19.9-4.49-29.87-2.06-15.11-4.18-30.21-6.29-45.32-.52-3.72-.85-7.47-1.88-11.14h1.18c.81.64,1.84.36,2.77.37,3.2.06,6.4.06,9.61.09,1.06,1.66.67,3.51,1,5.25,2.08,11.13,4.12,22.26,5.86,33.42.97,6.21,1.29,12.48,1.96,18.72.95,8.89,1.96,17.78,2.94,26.67.05.47.15.93.25,1.39.44,1.9,2.6,2.95,5.07,1.88,5.76-2.51,11.69-4.79,17.56-7.15,6.83-2.74,13.62-5.57,20.53-8.19,8.66-3.28,16.44-7.62,24.1-12.14,1.79-1.06,3.92-1.79,5.19-3.36,5.05-1.63,8.31-4.66,10.49-8.53.89-.16,1.16-.8,1.56-1.32,3.69-4.72,6.74-9.7,9.06-14.96,2.56-5.8,1.63-11.55-.39-17.28-1.52-4.3-4.15-8.26-6.03-12.45-.35-.77-1.16-1.49-.68-2.42,4.52,0,9.04,0,13.56,0,1.66,4.99,3.4,9.96,4.31,15.08.61,3.43,1,6.82-.46,10.21-.44,1.01-.34,2.16-.54,3.25-.61,3.27-1.8,6.41-3.45,9.43-2.74,5.02-5.48,10.04-9.23,14.66-.37.46-.78.91-.71,1.5-1.97.84-2.35,2.62-3.53,3.92-1.64,1.82-3.11,3.74-4.09,5.87-.32.18-.71.3-.94.53-4.26,4.29-9.57,7.64-15.14,10.75-7.25,4.05-14.78,7.74-22.25,11.51-5.73,2.9-11.62,5.58-17.91,7.63-7.75,2.52-14.97,5.88-22.43,8.86-1.12.45-1.5,1.03-1.5,2.02,0,7.3.38,14.58.82,21.86.59,9.63,1.45,19.24,2.73,28.83.72,5.37,1.34,10.76,2.42,16.1.11,2.91.7,5.77,1.19,8.64ZM608.93,311.47c-.46.11-.9.31-1.3.54-1.75.99-1.91,2.17-.28,3.25,4.45,2.96,9.12,5.68,14.13,8.01,2.75,1.87,5.65,3.58,8.93,4.83,4.2,2.72,8.89,4.85,13.44,7.14,13.17,6.62,26.64,12.84,40.68,18.23,7.32,2.81,14.84,5.23,22.58,7.22.67.17,1.31.3,2.01.22,2.6,1.32,5.49,1.58,8.46,1.42,2.1-.11,3.37-1.19,4.07-2.68,1-2.12,1.81-4.31,2.11-6.57.61-4.5,1.51-8.97,1.56-13.51.87-3.07.81-6.22,1.02-9.34.31-4.53.26-9.07-.25-13.61-.37-3.27-.32-6.55.21-9.84.68-4.25-.31-8.43-1.53-12.55-.52-1.77-2.36-2.73-4.61-2.42-2.6.36-5.15.97-7.75,1.34-13.41,1.9-26.82,3.75-40.24,5.62-8.1,1.13-16.21,2.24-24.31,3.41-2.31.33-4.59.79-6.75,1.58-4.09.64-8.07,1.54-11.9,2.86-6.87,1.31-13.53,3.2-20.28,4.84ZM647.16,292.48c9.05-1.77,18.07-3.67,27.19-5.2,11.25-1.89,22.59-3.29,34.05-4.04,3.82-.25,7.6-.72,11.33-1.43,3.05-.58,3.6-1.14,3.85-3.64.36-3.67.8-7.34,1.05-11.02.38-5.59-.81-11.1-1.8-16.6-.85-4.73-1.81-9.45-2.72-14.17-.59-3.08-1.53-3.79-5.37-4.36-8.81-1.32-17.73-1.72-26.63-2.32-4.99-.34-9.99-.59-14.98-.88-3.87-.2-7.72-.71-11.61-.7-10.27-.78-20.26-2.89-30.46-3.97-1.84-.2-3.72-.21-5.59-.22-2.67-.01-5.28-.3-7.83-.93-2.37-.59-4.84-.64-7.27-.82-7.62-.55-15.27-.94-22.88-1.55-5.27-.42-10.47-1.23-15.77-1.54-7.97-.47-15.9-.07-23.83.39-3.03.17-6.05.49-9.08.76-.97.09-1.95.2-2.9.37-2.82.51-4.06,1.59-4.22,3.86-.14,1.95-.07,3.92-.1,5.88-.05,3.05-.05,6.08-.59,9.13-.68,3.83.37,7.65,1.25,11.42,1.42,6.08,2.46,12.2,3.25,18.35.4,3.09,2.04,5.68,4.7,7.91,1.77,1.49,3.83,2.69,5.91,3.88,12.6,7.22,25.12,14.54,37.95,21.5,4.56,2.48,9.33,3.89,14.85,2.22,1.64-.5,3.37-.84,4.98-1.39,4.16-1.42,8.68-1.96,12.84-3.34,5.46-1.82,11.24-2.84,16.76-4.49,4.55-.84,9.05-1.8,13.43-3.09l.26.03ZM713.49,178.97c-.04-.92.19-1.89-.55-2.72.58-3.55-.35-7.03-.77-10.53-.78-6.55-1.77-13.08-2.7-19.62-.85-5.99-1.73-11.98-2.63-17.97-.66-4.36-1.11-8.73-.83-13.13.07-1.1.07-2.2-.18-3.28-.52-2.21-1.75-2.94-4.52-2.61-4.08.49-8.14,1.08-12.07,2.08-13.26,3.39-26.82,3.77-40.5,2.58-5.28-.46-10.37-1.77-15.08-3.81-15.68-6.77-32.21-11.92-49.04-16.51-9.65-2.63-19.18-5.55-29.1-7.48-2.67-.52-5.34-1.03-8.05-1.38-4.33-.57-8.26-1.96-12.08-3.58-3.15-1.34-5.16-.77-6.38,1.92-1.05,2.3-1.17,4.76-1.6,7.15-1.35,7.6-2.87,15.18-3.84,22.82-.85,6.64-1.15,13.3-.77,19.96.29,5.17.35,10.34.75,15.51.64,8.21.96,16.44,1.43,24.66.16,2.83,1.3,5.53,1.92,8.31,1.35,6.03,2.14,12.1,2.71,18.19.25,2.73.41,5.48.64,8.21.16,1.84,3.26,4.33,5.59,4.44,1.27.06,2.57.09,3.82-.08,4.58-.62,9.18-.68,13.8-.53,6.77.23,13.54.29,20.32.52,14.52.5,29.02,1.23,43.53,1.85,12.77.55,25.38,2,38.03,3.29,3.68.38,7.39.88,11.14.66.36.11.72.3,1.08.3,3.76-.02,7.47.76,11.24.54,8.91.51,17.82,1.01,26.73,1.52,2.25.13,4.5.32,6.75.39,3.03.1,4.76-1.17,4.86-3.59.09-2.27-.04-4.54-.54-6.79-1.3-5.88-1.74-11.82-1.73-17.78,0-2.28-.22-4.54-.78-6.78-.64-2.22-.5-4.49-.59-6.75ZM739.47,234.46c-2.82.23-3.24.74-3.63,2.91-.38,2.13-.06,4.23.19,6.33.75,6.25.95,12.51,1.02,18.78.04,3.84.17,7.68.64,11.5.44,3.55,1.74,4.55,6.19,4.44,3.06-.07,6-.73,8.98-1.22,18.92-3.13,37.82-6.34,56.62-9.91,3.54-.67,6.96-1.64,10.43-2.47,1.91-.46,2.77-1.48,2.78-2.88.02-1.76-.2-3.5-1.67-5.02-1.07-1.11-2.01-2.34-2.74-3.61-3.05-5.26-8.2-8.7-14.66-11.05-8.01-2.91-16.43-4.69-25.15-5.54-7.99-.78-15.98-1.51-23.98-2.21-2.44-.21-4.9-.21-7.86-.33-2.05.07-4.61.07-7.15.28ZM522.38,252.01c-.93-7.1-1.2-14.22-1.61-21.35-.11-1.88-.11-3.76-.56-5.62-.59-2.43-1.73-3.18-4.85-3.12-.98.02-1.96.1-2.93.22-3.29.41-6.57.87-9.87,1.25-1.48.17-2.89.5-4.18,1.08-4.62,2.07-8.39,4.83-10.73,8.71-2.1,3.49-1.06,6.54,1.95,9.29,1.35,1.24,2.86,2.38,4.37,3.5,7.48,5.55,15.17,10.92,23.11,16.04.91.59,1.91,1.1,2.94,1.54,2.31,1.01,3.55.48,3.71-1.52.02-.23,0-.47,0-.7-.04,0-.07,0-.11,0-.41-3.11-.82-6.23-1.23-9.34ZM548.96,311.37c.56.81,1.41.95,2.39,1.12,3.54.6,7.03.25,10.5-.26,2.88-.43,5.74-1,8.59-1.55.79-.15,1.99.12,2.18-.82.18-.91.19-1.9-.75-2.64-.34-.27-.74-.51-1.14-.74-7.32-4.2-14.64-8.39-21.96-12.59-.24-.14-.47-.28-.73-.4-2.29-1.04-4.01-.32-4.26,1.82-.08.7-.01,1.41-.01,2.11-.05,5.07,2.16,9.6,5.18,13.96Z"/>
  <path class="st4" d="M761.24,748.67c1.46-8.46,2.35-16.96,3.15-25.47.76-8.04,2.22-16.02,4.19-23.93,1.24-4.99,1.84-10.06,2.75-15.09,1.28-7.04,3.56-13.9,6.56-20.61.71-1.59,1.03-3.3,1.72-4.9,1.47-3.41,3.31-6.73,4.55-10.19,1.7-4.71,3.53-9.39,5.55-14.01,4.89-11.22,9.91-22.4,15.26-33.48,1.52-3.15,3.47-6.11,5.71-8.97.45-.57,1.59-1.05.68-1.94,0,0,.01-.04.01-.04,1.64.4,1.71-.5,1.79-1.38,0,0,0,.01,0,.01,1.05-.1,1.29-.67,1.26-1.39l-.04.03c.2-.13.39-.27.59-.4,2.44-2.09,4.53-4.48,7.9-5.75,1-.24,2.02-.44,2.99-.74,1.67-.52,1.66-.55.85-2.17-.76-1.91-1.4-3.85-2.32-5.71-1.28-2.58-1.59-5.39-2.96-7.94-.62-3.72-1.57-7.39-1.99-11.14-1.13-10.1.88-19.64,7.4-28.45.44-.6,1.01-1.16,1.08-1.9,2.11-1.48,3.54-3.42,5.36-5.1,1.24-1.15,2.94-2.01,3.64-3.51,1.2-.3,1.87-1.12,2.67-1.79,12.06-10.04,26.02-18.04,41.38-24.54,3.82-1.62,7.83-2.87,11.95-3.91.91-.23,1.95-.26,2.59-.96,1.59.27,3.06-.24,4.54-.51,3.28-.61,6.68-.61,9.92-1.37,5.38-.03,10.76-.06,16.14-.1,3.98.32,7.95.74,11.94.93,2.63.13,5.2.78,7.86.59,4.89.78,9.81,1.49,14.67,2.35,10.05,1.78,20.12,3.51,29.78,6.4,7.41,2.22,14.09,5.48,20.08,9.61,3.19,2.2,6.37,4.42,9.47,6.7,1.3.95,2.6,1.48,4.43,1.42,4.7-.13,9.41-.11,14.12-.15,0,4.55,0,9.1,0,13.65-.71-.26-1.11.09-1.43.5-1.43,1.77-.81,3.98,1.43,5.15,0,9.1,0,18.2,0,27.29-1.52.06-1.56-1.04-1.98-1.73-3.75-6.21-7.99-12.22-12.18-18.24-1.92-2.76-4.45-5.15-7.15-7.44-2.53-2.14-5.56-2.84-9.1-1.96-1.5.37-2.99.75-4.46,1.18-3.68,1.08-7.34,2.2-11.02,3.29-10.86,3.19-21.87,6.06-32.54,9.67-6.04,1.93-12.08,3.86-18.12,5.78-1.11.31-2.22.61-3.32.93-12.74,3.66-25.5,7.27-38.2,11.03-4.96,1.46-10.12,2.5-14.76,4.64-7.14,3.29-14.35,6.49-21.51,9.75-4.35,1.98-8.7,3.95-12.99,6.01-3.46,1.66-4.01,3.09-2.53,6.11.43.87.95,1.72,1.52,2.54,2.44,3.54,4.87,7.09,7.41,10.59.85,1.16,1.1,2.48,1.93,3.63,4.47,6.19,8.11,12.73,12.42,19,3.09,4.5,5.82,9.17,8.97,13.66,5.65,8.07,11.32,16.14,16.95,24.22,2.26,3.25,3.88,6.76,6.01,10.06,4.15,6.41,8.03,12.94,12.38,19.28,1.62,2.36,2.91,4.88,4.33,7.33,2.97,5.11,6.5,9.99,10.39,14.7,12.63,15.33,26.25,30.1,40.17,44.69,9.09,9.53,19.11,18.45,28.72,27.64,4.08,3.9,8.1,7.85,12.15,11.77-6.5.02-13.01.04-19.51.07-1.04-.94-2.09-1.86-3.11-2.82-8.19-7.72-16.57-15.32-24.51-23.2-8.25-8.19-15.61-16.92-23.38-25.4-16.72-18.26-31.38-37.48-42.54-58.32-1.58-2.95-3.32-5.87-5.28-8.62-2.35-3.29-4.7-6.61-6.78-9.99-1.92-3.12-4.21-6.09-6.17-9.18-1.81-2.85-3.82-5.71-5.84-8.52-4.12-5.71-7.92-11.57-11.84-17.37-2.87-4.24-5.85-8.44-8.54-12.75-2.03-3.25-4.21-6.46-6.36-9.64-2.39-3.53-4.64-7.15-7.31-10.57-.15-.2-.27-.42-.38-.64-.96-2.08-2.66-3.75-4.65-5.25-1.26-.95-2.72-.86-4.18-.05-2.27,1.25-3.62,3.07-4.63,4.98-2.9,5.49-6.55,10.67-9.99,15.95-2.26,3.47-4.31,7.01-5.66,10.82-4.92,13.87-9.75,27.75-14.42,41.68-7.89,23.53-15.8,47.06-22.26,70.87-1.1,4.05-2.31,8.1-2.59,12.26-3.61-.08-7.19.17-10.78.47ZM899.45,546.82c4.88-1.05,9.46-2.76,14.19-4.15,2.91-.85,5.89-1.57,8.62-2.78,1.68-.11,3.13-.78,4.64-1.27,4.58-1.47,9.31-2.66,13.71-4.48,4.52-1.09,8.85-2.55,13.04-4.28,3.07-.58,5.84-1.8,8.74-2.73,9.63-3.11,19.25-6.25,28.86-9.4,1.63-.53,3.22-1.16,4.76-1.84,1.7-.75,1.82-1.19,1.26-2.68-.42-1.14-1.38-1.9-2.63-2.41-7.33-2.99-14.73-5.89-22.23-8.61-1.56-.56-3.25-.65-4.91-.52-7.36.58-14.47-.41-21.44-2.16-4.66-1.17-9.4-1.5-14.24-1.09-.57.05-1.13.2-1.7.3-5.33-1.04-10.74-1.08-16.15-.66-2.31.18-4.6.55-6.89.83-3.37.51-6.75.97-10.11,1.52-6.88,1.15-13.35,3.2-19.29,6.17-9.82,4.9-19.44,10.04-28.33,15.99-.87.58-2.05,1-2.25,2.07-.19.01-.45-.04-.58.04-3.41,2.06-6.8,4.14-9.21,7.03-2.53,1.67-4.27,3.82-5.85,6.08-.83,1.19-1.06,2.62-1,3.81.25,4.66.58,9.35,2.22,13.88.84,4.82,2.51,9.41,5.85,13.54.04.15.04.32.12.46,1.46,2.71,2.32,3.07,5.5,1.61,4.76-2.17,9.37-4.55,14.05-6.83,6.18-3.02,12.37-6.03,18.56-9.04,6.39-3.1,13.28-5.33,20.23-7.47.98-.05,1.82-.34,2.46-.95Z"/>
  <path class="st4" d="M167.5,769.32c.15,1.21.99,2.2,1.63,3.24,3.6,5.83,7.24,11.65,10.82,17.49.86,1.4,1.56,2.87,2.33,4.31,14.74,0,29.48,0,44.22,0,.17-.16.34-.32.51-.48,1.6-4.54,2.7-9.17,3.94-13.78.08-.3.08-.61.12-.92-.18.05-.39.07-.55.15-9.27,4.8-19.37,8.21-29.62,11.38-2.82.87-4.96.21-6.4-1.92-.7-1.03-1.34-2.1-1.79-3.21-1.83-4.55-4.24-8.92-6.66-13.28-.1-.16-.19-.31-.29-.47-5.24-.71-10.5-1.31-15.68-2.28-.84-.16-1.72-.16-2.59-.24Z"/>
  <path class="st4" d="M151.03,794.36c-4.89-10.5-7.3-21.55-11.09-32.3-3.2-1.17-6.41-2.33-9.6-3.52-3.15-1.18-5.91-2.75-7.95-5.06-.22-.26-.49-.49-.92-.51-.29.8.15,1.53.4,2.27,4.13,12.29,8.26,24.57,12.37,36.86.25.73.7,1.47.27,2.26h16.51Z"/>
  <path class="st3" d="M1011.93,793.9c-6.5.02-13.01.04-19.51.07,0,.13,0,.26.04.39h20.05c-.08-.25-.26-.41-.59-.46Z"/>
  <path class="st1" d="M227.01,793.88c-.17.16-.34.32-.51.48,4.91,0,9.83,0,14.74,0-.78-.72-1.83-.41-2.76-.42-3.82-.05-7.65-.04-11.47-.06Z"/>
  <path class="st3" d="M774.68.54c.07-.18.13-.37.2-.55-3.93,0-7.86,0-11.79,0,.03.17.06.34.09.5,3.83.02,7.66.03,11.5.05Z"/>
  <path class="st1" d="M48.19,238.3c.64-.47,1.44-.81,1.49-1.62,2.37-.15,3.57-1.78,5.25-2.76,2.42-1.41,4.54-3.14,6.87-4.66.59-.39.11-.65.17-.97,1.21.16,1.73-.63,2.39-1.15,8.61-6.74,17.18-13.5,25.8-20.22,2.19-1.71,3.59-3.69,4.05-6.09.33-1.7.67-3.4.86-5.11.68-6.07,1.3-12.15,1.94-18.23.84-7.94,1.69-15.88,2.54-23.83.41-4.03,1.3-8.03,1.39-12.08.43-.47.42-1.03.51-1.57.71-4.03,1.42-8.05,2.17-12.07,1.45-7.81,3.29-15.58,3.87-23.48.31-4.26,1.95-8.3,3.81-12.24,2.12-4.51,5.94-8.09,10.95-10.78,6.76-3.62,13.55-7.21,20.41-10.7,4.54-2.31,9.28-4.38,14.35-5.88.46-.14.46-.46.62-.72,1.5-.03,2.79-.58,4.1-1.06,3.06-1.11,6.43-1.57,9.39-2.88,1.8.11,3.29-.68,4.93-1.04,13.2-2.89,25.76-7.26,38.68-10.79.27-.07.5-.24.74-.37,2.16.27,3.77-.95,5.7-1.34,2.41-.49,4.86-.9,7.13-1.76.98.12,1.98.39,2.84-.28,1.28,1.24,2.56,2.48,3.84,3.72.48.46,1.16.84.97,1.57-.55.83-1.89.26-2.54.91-4.08.55-7.87,1.82-11.71,2.97-.3.09-.46.47-.69.72-1.25-.46-2.28.14-3.36.45-9.94,2.85-19.79,5.88-29.92,8.28-3.1.73-6.19,1.48-9.27,2.25-1.96.49-3.89,1.04-5.69,1.85-4.72,1.32-9.21,3.01-13.49,5.07-3.15.91-6.03,2.25-8.94,3.53-2.66,1.17-5.45,2.13-8.1,3.28-4.59,2-8.58,4.67-11.86,7.96-1.24,1.24-1.87,2.75-2.26,4.3-2.29,8.97-4.27,17.99-5.93,27.05-1.3,7.11-2.62,14.21-3.92,21.32-.21,1.16-.58,2.31-.17,3.49-.2.26-.55.52-.56.79-.27,4.04-1.21,8.03-1.29,12.07-.89,4.65-1.19,9.35-1.77,14.03-.98,7.95-1.87,15.91-2.79,23.87-.04.31-.08.62-.11.94-.28,2.97,1,4.17,4.64,4.46,7.52.6,15.03,1.24,22.54,1.84,6.86.55,13.49,2.03,20.22,3.12,6.93,1.12,13.96,1.75,20.94,2.61.77.09,1.57.17,2.35.12,8.79-.56,17.44.55,26.1,1.45,3.88.41,7.71.89,11.69.4,4.41-.55,8.79.18,13.09,1.1,5.47,1.16,10.71,2.95,16.3,3.79,3.57.54,7.08,1.25,10.49,2.29,2.1.64,3.08.26,3.88-1.41,1.23-2.57,2.03-5.23,2.69-7.93.21-.84.38-1.72.81-2.49,3.45-6.14,4.66-12.75,6.25-19.27.44-1.78.93-3.54,2.25-5.05.77-.88.91-1.9,1.18-2.88,1.45-5.2,2.68-10.43,4.3-15.6,1.29-4.14,1.68-8.4,2.98-12.53.91-2.92,2.06-5.8,2.39-8.82,1.67-1.39,1.68-3.3,2.04-4.97.69-3.2,1.74-6.3,3.05-9.36.09-.21.05-.46.07-.69.2-2.98,1.34-5.83,2.21-8.7.93-3.08,1.18-6.32,3.1-9.2.43-5.64,3.32-10.9,3.91-16.52.18-1.72.2-3.43.32-5.14,4.13,1.41,8.26,2.82,12.39,4.24-1.98,4.73-3.29,9.6-4.7,14.44-3.05,10.47-6.26,20.9-9.59,31.31-1.54,5.15-3.5,10.23-4.67,15.45-1.69,3.01-2.37,6.25-3.39,9.41-4.1,12.79-6.75,25.84-10.68,38.66-1.53,5.01-3.26,9.98-4.92,14.96-.45,1.36-.76,2.74-1,4.14-.4,2.29.9,3.87,3.33,4.74,4.92,1.76,9.91,3.41,14.93,4.97,2.77.86,5.02.12,6.77-2.04,4-4.93,7.9-9.91,11.91-14.83,7.34-9,15.25-17.65,24.59-25.41,1.06-.88,1.81-2.01,2.71-3.03,1.68-1.25,3.31-2.53,4.7-4.01,1.15-1.23,2.36-2.43,3.65-3.57,2.21-1.94,4.06-4.09,5.9-6.24,2.17-2.39,4.74-4.58,7.48-6.47,4.88-3.37,10.02-6.39,17.18-6.29,4.53.06,8.67.59,12.61,2.33,1,.44,2,1.04,3.28.88.74,1.13,2.37,1.3,3.48,2.04,1.57,1.05,3.27,1.97,4.91,2.95.9,1.18,2.4,1.83,3.73,2.61,10.24,5.98,17.94,13.52,22.44,23.06.41.87.94,1.75,1.64,2.49,2.99,3.22,4.85,6.97,7.54,10.33.41.51.66,1.03.34,1.75-.77,1.75.31,3.09,2.05,4.02,1.9,1.01,3.03,2.25,3.53,4.08.54,1.99,2.46,3.35,4.46,4.53,1.15.68,1.92,1.38,1.97,2.64.08,1.91,1.36,3.44,3.32,4.5,3.56,1.91,5.83,4.57,7.53,7.65,3.08,5.59,6.21,11.13,8.21,17.08,1.12,3.35,3.39,6.47,5.36,9.61,3.06,4.9,6.09,9.77,8.37,14.96,3.28,7.46,7.94,14.46,11.91,21.7,6.21,11.33,13.06,22.43,18.85,33.91,6.12,12.14,11.25,24.55,14.5,37.4.54,2.15,1.07,4.3,1.44,6.47.54,3.08-.19,6.09-1.12,9.07-.81-.05-1.11-.58-1.51-1.02-3.6-3.9-7.2-7.79-10.8-11.69,1.33-.49.64-1.39.51-2.04-.39-1.93-.85-3.86-1.51-5.74-1.38-3.95-2.88-7.88-4.36-11.81-3.76-9.99-8.52-19.7-13.8-29.23-5.83-10.52-11.99-20.92-17.48-31.55-1.6-3.09-3.32-6.19-5.28-9.08-2.34-3.45-3.59-7.13-5.29-10.7-4.7-9.89-10.19-19.52-14.84-29.41-2.14-4.55-5.32-8.63-8.73-12.59-6.41-7.42-12.55-14.98-18.36-22.71-6.05-8.05-12.63-15.84-20.21-23.02-3.89-3.68-8.48-6.92-13.79-9.37-.65-1.45-2.62-1.7-3.88-2.58-1.67-1.17-3.93-1.81-5.93-2.68-2.36-1.07-4.86-1.89-7.41-2.6-1.56-.44-3.05-.24-4.28.82-1.71,1.48-3.66,2.8-4.73,4.69-1.76.91-2.83,2.3-3.99,3.62-3.32,3.75-7.47,6.93-11.09,10.47-6.48,5.6-12.1,11.74-17.68,17.9-6.56,7.24-12.63,14.75-18.8,22.21-1.53,1.85-2.58,3.87-3.56,5.92-.86,1.81.15,3.44,2.41,4.19.99.33,2.03.58,3.07.83,5.45,1.33,10.74,2.99,15.92,4.9,2.68.99,5.49,1.71,8.42,2.04,3.17.35,6.03,1.29,8.69,2.69,4.84,2.54,9.55,5.23,14.16,8.05.91.56,1.53,1.28,1.87,2,1.42,2.98,3.92,5.57,4.95,8.66,1.1,3.33,2.06,6.68,3.4,9.96.15.36.16.78.16,1.17.18,8.93,1.15,17.84.58,26.78-.36,5.64-1.39,11.23-1.99,16.85-.5,4.68-1.23,9.36-1.53,14.05-.73,11.37-2.75,22.6-5.05,33.81-1.52,7.42-2.98,14.85-5.04,22.18-.19.68-.47,1.35-.71,2.03-3.9-.57-7.55-1.75-11.2-2.94,1.49-7.27,3.02-14.53,4.47-21.8,1.63-8.2,3.07-16.42,3.98-24.7,1.11-10.15,2.32-20.29,3.3-30.45.73-7.52.44-15.05-.62-22.55-.74-5.21-1.5-10.43-2.74-15.59-1.24-5.15-4.29-9.76-8.9-13.29-4.5-3.45-9.85-6.24-15.89-7.93-8.43-2.36-16.85-4.72-25.29-7.06-3.25-.9-4.52-.5-6.3,1.91-16.37,22.23-32.25,44.69-48.05,67.19-8.35,11.89-16.04,24.08-23.06,36.52-.48.86-1.05,1.69-1.64,2.5-9.33,12.81-17.7,26.04-26.09,39.25-1.19,1.87-2.43,3.72-3.13,5.79-.55,1.64-2.14,2.91-3.17,4.38-2.28,3.27-4.31,6.66-6.55,9.94-2.71,3.97-5.32,7.98-7.86,12.02-3.12,4.96-5.66,10.09-7.72,15.4-1.58,4.07-3.31,8.11-4.81,12.2-1,2.73-1.41,5.52-1.41,8.36,0,2.35,1.19,4.11,3.84,5.13,5.4,2.07,10.79,4.16,16.26,6.09,3.37,1.19,6.71,2.44,10.02,3.72,7.51,2.9,15.28,5.29,22.86,8.03,6.03,2.19,12.03,4.42,18.06,6.62,4.77,1.75,9.56,3.46,14.33,5.22,1.49.55,2.96,1.16,4.39,1.8,7.2,3.23,15.21,4.56,23.06,6.28,5.68,1.25,11.35,2.49,17.04,3.71,5.16,1.11,6.31.6,7.95-3.51,4.02-10.07,7.97-20.16,12.06-30.21.93-2.28,1.32-4.72,2.97-6.8,3.6.33,6.7,1.74,9.92,2.9-1.35,4.73-3.37,9.3-5.09,13.95-2.58,6.98-5.25,13.93-7.88,20.9-.06.15-.12.3-.16.45-.38,1.37-1.1,2.87.5,3.96,1.53,1.03,3.51.83,5.35.5,1.04-.19,1.91-.8,3.02-.87-.87,3.74-2.14,7.39-3.53,11.03-2.7.13-5.28-.18-7.66-1.29-1.16-.54-2.04-.37-2.44.77-.13.37-.38.72-.59,1.08-4.28,7.39-9.73,14.14-16.98,19.91-7.99,6.35-17.63,9.9-28.86,10.4-9.42.42-18.86.34-28.21-.85-7.76-.99-15.43-2.35-22.86-4.39-9.75-2.68-17.93-7.37-25.11-13.21-9.97-8.1-18.09-17.32-25.37-27.04-3.13-4.17-6.31-8.31-8.59-12.84-3.01-5.99-3.72-12.3-4.13-18.65-.29-4.52-.27-4.52-4.5-7.57-.29-.21-.59-.42-.88-.63-8.44-6-16.6-12.23-24.39-18.77-3.05-2.56-5.96-5.22-8.55-8.08-3.9-4.3-6.65-8.99-7.97-14.25-1.52-6.05-2.15-12.18-3.36-18.26-1.51-7.58-2.71-15.19-4.07-22.79-1.12-6.28-2.45-12.54-3.21-18.85-.58-4.83-1.03-9.68-1.67-14.51-1.43-10.91-2.76-21.83-3.22-32.8-.55-13.09-1.87-26.13-2.63-39.2-.04-.62-.18-1.24-.27-1.86-.29-1.92-1.56-3.13-3.96-3.62-3.32-.68-6.62-1.45-9.94-2.14-.74-.15-1.53-.33-2.32-.08-3.21-1.25-6.77-1.27-10.17-1.81-1.88-.29-3.78-.79-5.76-.57-1.05-.64-2.35-.63-3.55-.88-2.77-.6-5.68-.81-8.29-1.86,0-7.24,0-14.48.01-21.73,1.25-1.4,3-2.39,4.57-3.54ZM54.98,255.05c5.33,1.79,10.95,2.74,16.62,3.51,3.46.54,6.92,1.09,10.38,1.6.77.11,1.57.13,2.35.11,2.48-.05,3.62-.76,4.09-2.69.32-1.3.51-2.64.61-3.97.24-3.37.44-6.73.57-10.1.27-6.58.48-13.17.71-19.75.02-.55.09-1.1,0-1.65-.21-1.39-1.61-2.01-3.2-1.38-.61.24-1.13.62-1.65.97-5.82,3.98-11.64,7.96-17.46,11.94-.67.46-1.43.87-1.44,1.68-.74-.06-1.36.21-1.87.56-3.67,2.57-7.44,5.06-10.79,7.91-.55.47-.85,1.04-1.15,1.61-2.57,1.22-3.97,3.28-5.63,5.12-.68.75.36,2.14,1.97,2.74,1.66.62,3.42,1.08,5.14,1.61.25.06.49.11.74.17ZM104.58,291.66c-.41.91-.16,1.85.12,2.78,1.28,4.28,1.92,8.63,2.12,13.03.27,5.95.49,11.91.65,17.87.11,4.37,1.06,8.72,1.23,13.12.19,5.01.62,10.02.94,15.03.47,7.29,1.97,14.48,3.37,21.68,2.26,11.69,4.58,23.37,5.57,35.19.25,2.92,1.33,5.72,2.71,8.39.57,1.1.58,2.24,1.19,3.3,1.84,3.24,2.85,6.72,4.34,10.07.26.59.45,1.24,1.03,1.67,2.72,2,4.55,4.67,7.61,6.42,1.16.66,1.62,1.74,2.5,2.57,3.16,2.99,7.25,5.23,10.27,8.33.53.54,1.35.9,2.09,1.29,2.72,1.44,5.16.83,6.22-1.64,1.75-4.07,3.4-8.17,5.08-12.27.85-2.08,1.65-4.18,2.51-6.27,1.74-4.24,3.91-8.33,6.33-12.37,9.14-15.25,18.51-30.41,28.99-45.1,8.8-12.34,16.42-25.15,24.73-37.68,8.87-13.36,17.55-26.82,27.04-39.91,9.59-13.23,18.66-26.69,28.79-39.67,3.7-4.73,6.25-9.94,9.18-14.98,1.22-2.09.63-3.35-2.11-4.4-4.59-1.77-9.24-3.48-14.13-4.68-3.5-.86-4.6-.46-5.82,2.29-2.42,5.46-4.74,10.96-7.04,16.45-1.69,4.04-3.97,7.84-7.15,11.28-7.9,8.55-18.46,13.91-31.31,16.48-2.66.53-5.36.94-8.06,1.34-1.64.24-3.31.34-4.96-.06-2.76-.67-5.6-.77-8.46-.75-15.73.15-31.41-.71-47.11-1.24-4.91-.17-9.81-.44-14.71-.56-8.46-.2-16.83-1.05-25.17-2.09-1.45-.18-2.96-.17-4.37-.48-1.7-.38-2.38.34-2.83,1.37-.25.58-.33,1.23-.35,1.85-.05,1.41-.02,2.82-.02,4.35.1,2.62.19,5.36-1.01,8.02ZM104.64,256.92c-.17,1.24-.15,2.51-.09,3.76.13,2.58,1.65,4.14,4.79,4.66,6.73,1.11,13.47,2.13,20.27,2.9,13.07,1.48,26.24,1.39,39.39,1.8,5.4.17,10.8.18,16.19.49,2.57.15,5.07.5,7.47,1.22,2.33.7,4.73,1.04,7.18,1.16,3.53.17,7.06.27,10.59.41,1.76.07,3.52.1,5.27.39,3.32.55,6.41.04,9.35-1.3,10.69-4.86,18.2-11.72,21.74-21.29,2.08-5.63,4.63-11.15,7.99-16.41.67-1.04,1.2-2.15,1.62-3.27.69-1.85-.03-2.99-2.2-3.78-12.15-4.37-24.78-7.37-38-8.87-11.29-1.28-22.61-2-34-2.45-17.07-.68-34.03-2.27-50.83-4.82-5.7-.86-11.42-1.5-17.22-1.73-.78-.03-1.58-.07-2.35,0-2.57.22-3.02.57-3.42,2.68-1.74,9.05-3.22,18.13-2.64,25.21.03,7.83-.37,13.54-1.13,19.24ZM278.7,539.22c2.16-.23,4.25-.8,5.77-2.14,6.12-5.45,11.73-11.18,14.82-18.21.13-.3.26-.59.38-.89,1.33-3.31,1.14-3.67-3.16-4.51-10-1.96-20.03-3.85-30.03-5.8-4.49-.88-8.79-2.24-12.99-3.77-25.62-9.35-51.62-17.99-77.6-26.66-1.26-.42-2.58-.76-3.89-1.07-2.37-.56-3.91.48-3.64,2.48.09.61.36,1.22.61,1.81,1.87,4.37,3.78,8.73,5.64,13.11.65,1.52,1.65,2.84,3.2,3.87,4.29,2.86,7.53,6.38,10.11,10.3,1.94,2.95,4.26,5.62,7.64,7.65,1.1.66,1.94,1.55,2.76,2.44,2.45,2.69,5.42,4.96,8.79,6.9,5.09,2.93,10.11,5.95,15.83,8.12,5.38,2.04,11.14,2.96,16.92,3.89,10.02,1.62,20.1,2.81,31.58,3.05,1.62.13,4.44-.26,7.26-.56Z"/>
  <path class="st2" d="M531.18,729.89c.12-.12.2-.29.35-.36,20.7-9.27,42.82-15.29,66.17-18.54,10.97-1.52,21.98-2.32,33.12-1.88,14.92.59,28.23,4.63,40.57,11.33,6.64,3.61,10.58,8.45,13.38,14.17,2.95,6.04,4.32,12.35,5.17,18.75.2,1.48.25,2.98.55,4.44.36,1.81-.66,2.98-2.44,3.89-1.92.97-3.97,1.68-6.19,2.13-6.95,1.41-14.02,2.34-21.04,3.46-10.81,1.72-21.18,4.62-31.51,7.61-10.88,3.15-21.77,6.29-32.79,9.12-.84.22-1.65.51-2.56.49-.8,3.15-1.85,6.25-3.1,9.3,9.76.02,19.52.03,29.28.06,1.07,0,2.14.03,3.22.05,16.53-4.37,33.01-8.86,49.67-12.92,4.21-1.03,8.44-1.98,12.69-2.9,3.63-.78,6.28,1.03,6.03,3.88-.34,3.98.12,7.96,1.21,11.88,4.33.03,8.65.07,12.98.1.07-3.38-1.07-6.65-1.51-9.99-.22-1.71-.71-3.4-.88-5.11-.32-3.12.53-4.26,4.28-5.33,9.5-2.7,18.94-5.56,28.6-7.9,6.67-1.62,13.44-2.83,20.34-3.6,1.07-.12,2.14-.26,3.22-.09,3.36-.74,6.84-.59,10.25-.96,1.95-.15,3.9-.3,5.85-.45,4.4-.35,7.74.85,10.19,3.93,3.58,4.51,6.56,9.25,9.38,14.07,2.94,5.03,5.71,10.12,8.27,15.28,4.67.04,9.34.08,14.02.12.21-1.06-.4-2-.78-2.96-3.97-10.24-8.54-20.32-13.52-30.27-.95-1.9-2.16-3.68-3.47-5.43-3.05-4.08-7.58-6.15-13.48-6.57-4.89-.35-9.79-.43-14.69-.49-3.61-.08-7.19.17-10.78.47-13.14.99-25.94,3.23-38.44,6.57-4.83,1.29-9.66,2.56-14.61,3.55-4.32.86-5.26.17-5.93-3.34-1.26-6.64-1.21-13.43-3.42-19.95-1.39-4.09-2.52-8.24-4.26-12.26-.59-1.35-1.64-2.4-2.43-3.6-2.36-3.6-6.24-5.89-10.33-8.04-4.91-2.58-10.31-4.36-15.75-6.05-3.18-.99-6.36-2.06-9.6-2.83-6.09-1.45-12.31-2.61-18.54-3.64-13.12-2.16-26.38-3.25-39.79-3.08-6.82.09-13.39,1.33-19.97,2.59-15.14,2.9-29.5,7.43-43.23,13.21-6.54,2.75-13.18,5.42-19.06,9.08,2.01,1.82,4.61,3.05,6.98,4.51,1.92,1.18,3.85,2.35,5.81,3.49.76.44,1.39,1.12,2.51,1Z"/>
  <path class="st4" d="M435.39,766.09c-.66-1.25-1.86-2.2-2.86-3.25-10.55-11.13-22.12-21.59-33.32-32.3-8.94-8.54-18.2-16.86-26.82-25.61-.91-.92-1.77-1.88-2.6-2.85-1.51-1.79-2.39-3.76-2.49-5.94-.04-.86-.08-1.72-.07-2.58.07-8.93.2-17.87.21-26.8.01-7.21.22-14.41,1.23-21.59-2.95-2.1-6.28-3.7-9.92-4.92-1.03,10.93-2.06,21.86-3.1,32.79-.2,2.11-.43,4.21-.64,6.32-.11,1.12-.73,1.98-2.05,2.36-1.33.39-2.21-.33-3.04-1.03-.13-.11-.27-.23-.4-.34-4.98-4.22-9.97-8.43-14.94-12.66-5.37-4.57-10.74-9.15-16.09-13.74-1.87-1.61-3.7-3.26-5.14-5.13-1.6-2.09-1.37-3.57.79-5.26.91-.71,1.95-1.32,2.99-1.89,5.57-3.06,11.16-6.1,16.74-9.15-3.81-1.07-7.82-1.36-11.76-1.83-3.47-.41-6.9-1.14-10.45-1.08-3,1.7-6.27,3.03-9.53,4.37-1.73.71-3.48.87-5.3.3-1.55,2.82-1.81,5.9-2.75,8.84-1.32,4.15-2.53,8.33-3.79,12.49,2.37.15,4.29.97,5.87,2.39,1.75,1.58,3.6,3.11,5.33,4.71,7.18,6.64,14.44,13.23,22.46,19.24,1.71,1.29,3.32,2.66,4.93,4.04,5.89,5.06,10.93,10.66,16.1,16.18,2.14,2.28,2.13,2.83-.1,5.03-.37.36-.8.69-1.25.99-4.69,3.22-9.37,6.44-14.51,9.2-14.82,7.97-29.04,16.58-42.65,25.83-7.99,5.43-15.77,11.04-23.42,16.78,2.43.7,5.03.64,7.53.79,4.28.25,8.54.78,12.85.63,1.04-1.44,2.38-2.73,4.02-3.69,9.03-5.27,17.72-10.93,27.32-15.56,6.9-3.33,13.5-7,19.75-11.07,6.31-4.11,12.34-8.5,18.95-12.32,3.17-1.83,5.06-1.67,7.57.73,8.18,7.82,16.35,15.65,24.52,23.48,7.72,7.39,15.44,14.79,23.16,22.18l.17.45c7.22.34,14.47.33,21.68.89,1.61.13,3.33.41,4.84-.43Z"/>
  <path class="st4" d="M43.82,508.87c-.04,4.33-.07,8.65-.11,12.98,4.35-.83,8.78-.63,13.19-.61,9.53.04,19.04.42,28.54.98.99.06,1.92.2,2.83.56,7.75,3.04,15.54,6.02,23.21,9.2,5.47,2.27,10.02,5.48,14.67,8.62,12.53,8.47,25.9,16.05,39.16,23.76,13.04,7.58,25.43,15.76,37.15,24.62,3.4,2.57,6.84,5.11,10.59,7.4,1.68,1.03,3.78,1.89,4.96,3.49.28.38.99.49,1.44.74,1.55.9,3.16,1.72,4.24,3.09,1.26,1.6,2.99,2.98,4.93,4.01,3.74,1.99,6.29,4.86,9.3,7.39,4.57-.25,9.06-.97,13.64-1.19,2.24-.11,4.48-.2,6.72-.23,2.64-.04,5.26-.11,7.86-.53-.08-.22-.07-.57-.25-.66-3.2-1.53-5.44-3.95-8.35-5.75-1.16-.72-2.29-1.5-3.26-2.38-3.18-2.85-6.91-5.25-10.42-7.8-4.85-3.51-9.83-6.95-14.89-10.29-13.69-9.05-27.2-18.27-41.07-27.14-10.03-6.41-20.54-12.36-30.82-18.53-11.85-7.11-23.75-14.18-35.5-21.39-10.04-6.16-21.27-9.49-33.9-10.19-14.62-.82-29.23-.67-43.85-.14Z"/>
  <path class="st4" d="M43.7,530.3c0,8.11,0,16.23,0,24.34,0,.7-.08,1.4-.12,2.1,2.99,6.09,5.84,12.22,8.44,18.43,1.2,2.87,2.62,5.74,3.65,8.6,1.05,2.94,2.32,5.85,3.26,8.83,3.18,10.11,8.27,19.74,12.12,29.69,4.35,11.22,9.2,22.32,13.03,33.65,2.61,7.73,6.04,15.2,9.16,22.78,8.31,20.15,16.49,40.34,22.98,60.93.38,1.21.93,2.39,1.4,3.58.14-.09.31-.14.49-.15-.22-10.49-.4-20.98.29-31.46.2-3.13.19-6.26.28-9.39-.28-.65-.88-1.22-.69-1.97-1.35-4.16-2.78-8.34-4.5-12.37-4.47-10.51-7.97-21.26-12.78-31.69-6.2-13.42-10.38-27.35-15.66-41-1.97-5.09-3.77-10.21-5.82-15.28-5.95-14.71-11.73-29.48-19.05-43.8-4.51-8.82-10.36-17.17-16.03-25.56-.08-.12-.3-.18-.45-.27Z"/>
  <path class="st4" d="M176.27,754.45c-2.07-7.49-1.66-14.93.75-22.33,1.16-3.55,3.38-6.44,7.35-8.47,3.06-1.57,5.61-3.68,8.27-5.66,2.44-1.82,4.91-3.62,7.39-5.41,1.46-1.05,3.03-2.01,4.86-2.63,4.7-1.58,8.6-4.05,12.27-6.81,10.45-7.84,20.9-15.68,31.39-23.5,5.6-4.18,11.52-8.07,17.68-11.72.7-.42,1.48-.76,2.22-1.13,2.09-4.66,3.56-9.46,5.27-14.2.66-1.84,1.75-3.62,1.66-5.6-3.73,1.58-6.92,3.8-10.3,5.77-7.95,4.63-15.15,9.97-22.47,15.21-13.97,10.01-27.76,20.16-41.51,30.35-3.39,2.51-6.6,5.15-9.81,7.81-2.8,2.33-5.77,4.48-9.42,5.97-1.06.43-1.95,1.05-2.67,1.82-7.34,7.88-13.19,16.33-15.51,26.11-.92,3.86-1.25,7.77-1.2,11.69,4.52,1.16,9.07,2.23,13.79,2.73Z"/>
  <path class="st1" d="M493.68,422.09c-3.23,3.94-7.26,7.4-10.77,11.17-6.64,7.13-15.58,12.14-24.67,16.94-18.93,10-38.65,18.97-58.25,28.09-.84.39-1.65.83-2.48,1.25,5.08,1.95,10.16,3.9,15.25,5.85.53.2,1.06.4,1.67.26,2.21-.71,4.07-1.87,5.88-3.05,4.57-2.97,9.27-5.79,14.16-8.41,9.8-5.25,18.63-11.48,27.71-17.46,5.6-3.68,11.13-7.45,16.93-10.93,7.3-4.37,12.9-9.96,18.46-15.6,2.3-2.33,4.67-4.64,6.65-7.16-1.93-.83-4.1-.66-6.17-.88-1.44-.15-2.92-.07-4.39-.09Z"/>
  <path class="st2" d="M430.6,793.84c3.89-.02,7.79.22,11.68-.02,1.19-2.12,2.77-4.1,4.52-5.91,1.45-1.5,2.22-3.5,4.54-4.43-.2-1.19,1-1.82,1.73-2.59,12.53-13.16,27.2-24.59,43.82-34.44,3.46-2.05,7.02-3.98,10.55-5.95.79-.44,1.53-1,2.61-.95-3.12-1.88-6.23-3.78-9.37-5.64-1.17-.7-2.22-1.55-3.66-1.92-.95.29-1.6.9-2.35,1.4-8.01,5.32-15.43,11.13-22.52,17.22-.63.54-1.02,1.37-2.18,1.4v-.02c.2.77-.21,1.07-1.16.96,0,0,.02-.01.02-.01.23.5-.06.79-.61.98,0,0,.06-.04.06-.04-.2.17-.41.34-.61.51-1.51,1.03-2.33,2.48-3.5,3.71-2.02,2.13-4.07,4.23-6.45,6.1-.93.73-1.4,1.68-2.28,2.41-.15.28-.32.54-.8.46,0,0,.05-.04.06-.04.05.38-.07.63-.65.51,0,0,.05-.04.05-.04.11.43.04.71-.64.5,0,0,.02-.03.03-.03.39.28.19.55-.06.79-2.7,2.58-5.51,5.06-8.75,7.22-3.82,4.24-7.75,8.43-10.61,13.17-.31.52-.75.92-1.52.99.27,1.55-1.84,2.29-1.96,3.7Z"/>
  <path class="st1" d="M345.64,401.39c-1.83,5.7-4.47,11.19-6.76,16.77-4.53,11.01-9.27,21.97-13.32,33.1,3.56,1.48,7.23,2.74,11.2,3.32-.43-.72.04-1.37.28-2.03.67-1.88,1.37-3.75,2.1-5.61,3.08-7.82,5.56-15.79,9.19-23.46,3.15-6.65,6.1-13.34,8.51-20.19-3.57-1.25-7.39-1.53-11.19-1.91Z"/>
  <path class="st1" d="M342.02,514.27c1.44.01,2.59-.66,3.81-1.1,16.5-6,32.87-12.2,49.02-18.78.51-.21.98-.49,1.47-.74-3.79-1.61-7.68-3.05-11.61-4.43-1.87-.66-3.68-1.42-5.52-2.13.32.89-.66,1.04-1.28,1.32-8.62,3.88-17.24,7.77-25.9,11.6-1.43.63-2.9,1.34-4.66,1.23-1.57,3.52-3.15,7.03-4.72,10.55-.36.81-.8,1.6-.61,2.5Z"/>
  <path class="st4" d="M369.81,622.53c.05-4.41-1.13-8.68-2.35-12.94-.49-1.71-2.4-2.82-4.82-2.73-2.24.08-4.47.27-6.57,1.06-5.57,2.09-11.13,4.2-16.34,6.82,10.4,1.68,20.33,4.52,30.08,7.79Z"/>
  <path class="st1" d="M515.14,387.67c-1.65,4.03-3.49,7.98-5.84,11.8-2.28,3.7-4.23,7.52-6.33,11.29,3.72.05,7.4.69,11.13.58-.02-.58.42-1.02.74-1.49,2.57-3.64,4.81-7.42,6.9-11.24.38-.69.59-1.47,1.39-1.97.05-.5-.26-.9-.59-1.29-1.94-2.25-3.87-4.5-5.83-6.73-.38-.43-.76-.93-1.57-.95Z"/>
  <path class="st4" d="M261.68,629.78c1.19,2.54,3.4,4.49,5.77,6.33,3.19,2.48,6.69,4.72,9.25,7.69,1.65-3.51,2.76-7.14,3.9-10.76.14-.45.17-.93.17-1.4.03-2.2-1.51-3.37-4.22-3.15-4.96.41-9.91.86-14.87,1.29Z"/>
  <path class="st4" d="M432.56,790.14c.77-.08,1.2-.48,1.52-.99,2.86-4.74,6.79-8.93,10.61-13.17-.48-.52-.96-1.04-1.44-1.56-5.75,2.59-11.44,5.27-17.65,7.13-.24.07-.41.31-.61.47,2.2,2.9,4.87,5.52,7.57,8.12Z"/>
  <path class="st4" d="M244.21,788.41c2.49-1.1,4.58-2.61,6.33-4.35,2.25-2.22,4.56-4.38,7.31-6.22-3.04-.7-5.92-.02-8.73.77-1.08.3-2.01,1.05-2.37,1.96-1.01,2.57-2.19,5.12-2.54,7.83Z"/>
  <path class="st2" d="M563.25,793.86c4.08,0,8.15,0,12.23-.01.05-1.56.1-3.11.15-4.67-3.49.68-6.79,1.76-9.91,3.16-.9.4-1.96.68-2.46,1.51Z"/>
  <path class="st1" d="M118.12,743.1c-.18,0-.34.06-.49.15.22.91.28,1.85.98,2.64.07-.95.16-1.91-.49-2.78Z"/>
  <path class="st1" d="M1037.87,226.79c-.1-.34-.19-.69-.29-1.03-.32.05-.65.11-.97.16.12.57.49.9,1.25.87Z"/>
  <path class="st4" d="M120.98,751.97c-.12.43-.17.84.51,1.01.19-.45-.09-.76-.51-1.01Z"/>
  <path class="st3" d="M186.05,772.31c.14-.13.27-.26.41-.4-.23-.03-.46-.05-.69-.08.09.16.19.31.29.47Z"/>
  <path class="st4" d="M275.85,646.47c-.35.08-.61.21-.5.55.4-.05.54-.25.5-.55Z"/>
  <path class="st3" d="M467.68,754.37c.2-.17.41-.34.61-.51-.2.17-.41.34-.61.51Z"/>
  <path class="st0" d="M960.02,540.53c-6.04,1.93-12.08,3.86-18.12,5.78,5.48.19,10.66-1.05,15.83-2.24,1.96-.45,2.38-1.3,2.29-3.54Z"/>
  <path class="st4" d="M1037.17,140.98c.36-3.07.14-6.15.14-9.22-3.65-.61-7.29-1.23-10.94-1.81-6.85-1.1-13.5-2.74-19.94-4.9-11.94-4.01-23.88-8.01-35.81-12.04-2.44-.82-4.91-1.62-7.24-2.62-8.69-3.72-17.96-6.26-27.17-8.97-12.61-3.72-25-7.89-37.57-11.7-10.09-3.06-20.33-5.78-30.23-9.24-16.21-5.65-31.96-12.03-47.42-18.87-4.74-2.1-8.95-4.8-13.15-7.51-1.97.84-2.35,2.62-3.53,3.92-1.64,1.82-3.11,3.74-4.09,5.87,6.14,3.68,12.69,6.85,19.36,9.85,20.06,9.03,41.08,16.38,62.7,22.68,18.99,5.54,37.86,11.36,56.78,17.04,4.88,1.47,9.46,3.46,14.18,5.19,2.06.76,4.14,1.46,6.33,1.91,7.05,1.45,13.73,3.76,20.62,5.58,2.24.59,4.41,1.36,6.4,2.37,5.75,2.94,12.06,4.91,18.42,6.78,3.86,1.13,7.58,2.6,11.68,3.19,2.74.4,5.47.52,8.19.05,3.32-.57,6.26-.05,8.79,1.73,1.07.75,2.15,1.04,3.49.7Z"/>
  <path class="st0" d="M457.55,84.1c3.78-1.51,7.86-2.41,11.76-3.67,8.46-2.74,16.76-5.75,24.89-9.05.78-.32,1.6-.58,2.4-.87,4.35-1.82,8.68-3.67,12.82-5.8,2.18-1.13,4.51-2.07,6.5-3.44.5-.34,1.12-.64,1.84-.66.96-.88,2.27-1.3,3.56-1.74,4.41-1.38,8.4-3.46,12.72-4.98.58-.29,1.12-.64,1.73-.86,6.32-2.34,11.72-5.76,17.02-9.28,2.57-1.7,5.13-3.4,7.83-4.96,6.65-3.84,11.31-8.99,15.15-14.68,3.14-4.66,6.18-9.36,9.64-13.88.17-.87.7-1.62,1.17-2.4,1.46-2.39,2.64-4.87,3.71-7.38,0,0-.04-.01-.04-.01-4.06.01-8.12.02-12.18.03-1.06,0-2.13-.07-3.07.46-.22.59-.08,1.21-.31,1.83-.88,2.32-1.88,4.59-3.28,6.75-1.26,1.93-1.61,4.15-3.05,6.02-3.59,6.15-8.33,11.54-15.23,15.69-4.44,2.67-8.7,5.55-13.35,8-.3.43-.75.68-1.35.78l.02-.02c-.03.26-.19.42-.53.41-3.07,1.32-5.75,3.15-8.91,4.35-8.83,4.62-18.19,8.44-27.82,11.85-2.71,1.23-5.64,2.08-8.5,3.02-6.56,2.17-13.14,4.29-20,5.8-1.88.73-3.81,1.32-5.92,1.43-4.47,1.52-9.18,2.35-13.89,3.19-4.48,1.2-9.15,1.76-13.71,2.67-5.39,1.07-10.92,1.57-16.37,2.42-3.59.56-7.38.72-11.08,1.01-13.5,1.07-27.02,1.69-40.6,1.52-14.08-.17-27.99-1.56-41.84-3.51-5.12-.72-10.19-1.64-15.24-2.63-.96-.19-1.93-.33-2.64-.94-1.41.18-2.72-.19-4.02-.53-4.36-1.14-8.71-2.3-13.07-3.46-1.17-.39-2.33-.79-3.51-1.18-12.46-4.08-23.43-9.9-32.63-17.8-.4-.06-.58-.28-.67-.57-2.13-1.85-4.52-3.55-5.75-5.96-.34-.15-.77-.23-1-.45-6.43-6.27-10.73-13.17-10.75-21.53-.01-5.65.24-11.26,1.64-16.81.15-.61.38-1.22.13-1.85-5.08,0-10.16-.02-15.24-.02,0,0-.06-.01-.06-.01-.3.94-.59,1.88-.89,2.82-.51,2.36-1.05,4.71-1.52,7.08-1,5.02-1.25,10.09-1.57,15.16-.14,2.19.3,4.36.79,6.51,1.1,4.82,4.24,8.82,7.85,12.64,1.28,1.24,2.56,2.48,3.84,3.72.48.46,1.16.84.97,1.57,1.34-.17,1.88.72,2.61,1.3,13.82,10.83,29.24,19.95,46.15,27.45,5.48,2.43,11.1,4.66,16.66,6.98,4.13,1.41,8.26,2.82,12.39,4.24.19,0,.41-.05.58,0,7.21,2.25,14.69,3.59,22.34,4.45,6.41.73,12.84,1.32,19.29,1.58,10.87.42,21.75.38,32.62-.3,16.95-1.06,33.6-3.39,50-6.96,1.4-.3,2.75-.86,4.27-.72l-.02.05c-.03-.38.32-.33.61-.35,4.69-1.17,9.39-2.35,14.08-3.52Z"/>
  <path class="st0" d="M647.19,291.58c1.54-3.85,2.67-7.79,4.3-11.62,3.61-8.5,7.45-16.95,10.53-25.57,3.11-8.71,7.04-17.16,11.12-25.58-3.87-.2-7.72-.71-11.61-.7-2.3,3.3-3.54,6.93-5.01,10.47-2.82,6.84-5.42,13.75-8.12,20.62-2.57,6.53-5.24,13.04-7.71,19.6-1.88,5.01-4.04,9.94-6.17,14.87-.28.64-1.15,1.08-1.04,1.86,4.55-.84,9.05-1.8,13.43-3.09-.06-.32-.02-.63.29-.88Z"/>
  <path class="st4" d="M774.68.54c-3.83-.02-7.66-.03-11.5-.05.5,4.7,2.04,9.23,3.48,13.78,4.6,14.52,11.46,28.28,21.96,40.79.54.65,1.15,1.26,1.73,1.89,5.05-1.63,8.31-4.66,10.49-8.53-9.01-8.57-13.77-18.89-18.77-29.11-1.46-2.99-2.82-6.02-4.3-9-1.56-3.15-2.48-6.43-3.1-9.77Z"/>
  <path class="st0" d="M678.78,218.74c2.64-4.91,5.37-9.78,8.8-14.39,2.67-3.58,6.15-6.55,9.81-9.44,2.38-1.89,4.75-3.83,7.67-5.14,3-1.35,5.72-3.11,9.01-4.05-.64-2.22-.5-4.49-.59-6.75-.04-.92.19-1.89-.55-2.72-9,3.06-17.29,7.06-24.95,11.9-4.02,2.54-6.42,6.06-8.71,9.62-.79,1.22-1.52,2.47-2.41,3.64-2.78,3.62-5.27,7.34-7.09,11.34-.82,1.8-2.2,3.44-3.32,5.16.36.11.72.3,1.08.3,3.76-.02,7.47.76,11.24.54Z"/>
  <path class="st0" d="M630.41,328.1c2.85-5.66,5.02-11.51,7.62-17.24,1.07-2.35,2.06-4.71,3.09-7.07-4.09.63-8.07,1.54-11.9,2.86-.82,2.95-1.85,5.86-3.14,8.7-.29.63-.23,1.32-.82,1.93-1.74,1.79-2.72,3.92-3.77,6,2.75,1.87,5.65,3.58,8.93,4.83Z"/>
  <path class="st0" d="M725.32,339.58c-1.59,1.18-2.74,2.64-4.07,3.99-1.09,1.11-2.1,2.24-3.44,3.2-1.64,1.18-2.59,2.76-3.24,4.41-.47,1.19-1.16,2.28-2.02,3.29-1.68,1.97-2.78,4.13-3.43,6.44,2.6,1.32,5.49,1.58,8.46,1.42,2.1-.11,3.37-1.19,4.07-2.68,1-2.12,1.81-4.31,2.11-6.57.61-4.5,1.51-8.97,1.56-13.51Z"/>
  <path class="st0" d="M940.61,534.14c4.52-1.09,8.85-2.55,13.04-4.28-3.69-5.01-8.23-9.52-12.77-14.04-3.74-3.73-7.26-7.57-10.43-11.63-1.45-1.86-1.78-3.58-.34-5.47-5.33-1.04-10.74-1.08-16.15-.66-2.31.18-4.6.55-6.89.83-1.44,2.39-4.06,3.99-6.37,5.75-4.9,3.73-9.83,7.45-14.19,11.58-6.99,6.62-14.93,12.41-23.27,17.9-2.16,1.42-2.82,1.47-5.07.23-.48-.26-.9-.61-1.3-.95-3.36-2.85-6.81-5.64-9.78-8.76-.19.01-.45-.04-.58.04-3.41,2.06-6.8,4.14-9.21,7.03,3.44,2.8,6.8,5.66,9.88,8.71,1.8,1.78,1.76,2.97-.27,4.5-4.71,3.55-9.49,7.04-14.24,10.56.84,4.82,2.51,9.41,5.85,13.54,1.15-.85,2.3-1.7,3.45-2.55,7.03-5.25,13.78-10.72,21.12-15.71,2.58-1.75,5.48-2.73,8.82-2.87,8.33-.35,16.67-.68,25-1.01.83-.24,1.68-.18,2.53-.08,4.88-1.05,9.46-2.76,14.19-4.15,2.91-.85,5.89-1.57,8.62-2.78-.88-.03-1.76-.09-2.65-.09-6.98-.06-13.95-.1-20.93-.18-3.93-.05-7.86-.17-11.79-.24-1.14-.02-2.19-.15-2.71-1.08-.55-1,.31-1.61,1.05-2.25.2-.17.4-.34.61-.51,7.84-6.61,15.66-13.22,23.52-19.81,1.62-1.36,3.31-2.69,5.08-3.93,2.99-2.1,4.92-2.03,7.47.46,7.03,6.85,14.05,13.73,18.7,21.89Z"/>
  <path class="st2" d="M472.7,65.42c6.86-1.51,13.45-3.63,20-5.8,2.86-.95,5.79-1.79,8.5-3.02-8.64-2.07-17.29-4.13-25.92-6.21-1.01-.24-2.14-.3-2.92-.98-3.5-.37-6.81-1.23-10.01-2.4-.92.18-1.73-.12-2.58-.33-4.69-1.15-9.38-2.31-14.09-3.42-4.27-1-7.06-3.19-8.77-6.43-1.82-3.44-2.73-7.01-2.86-10.73-.16-4.57.53-9.07,1.18-13.59.4-2.78,1.78-5.27,3.38-7.71.29-.44.71-.74,1.36-.79-.4-1.35,1.09-2.31,1.17-3.56-1.79-.02-3.57-.05-5.36-.07-.78.01-1.57.03-2.35.03q-3.64.01-5.05,2.76c-1.93,3.8-2.78,7.8-3.44,11.85-1.11,6.83-2.41,13.64-2.03,20.56.33,6,1.89,11.76,5.09,17.24.85,1.46,2.07,2.39,3.81,3.05,3.03,1.15,6.26,1.8,9.47,2.5,4.91,1.07,9.81,2.17,14.72,3.26.84.18,1.73.28,2.53.54,2.96.99,6.31.98,9.14,2.27,1.8-.05,3.41.5,5.03,1.01Z"/>
  <path class="st1" d="M294.32,66.6c4.35,1.15,8.71,2.32,13.07,3.46,1.3.34,2.61.71,4.02.53-.65-3.4-1.21-6.81-2-10.18-.45-1.94-1.51-3.77-3.17-5.24-4.68-4.14-9.54-8.15-15.84-10.76-10.07-4.17-20.75-5.59-31.98-4.21-2.22.27-4.52.23-6.65.91,1.23,2.41,3.62,4.1,5.75,5.96.24-.03.48-.05.72-.08.29-.04.58-.08.87-.11,9.71-1.08,18.16.7,25.18,6.52,4.31,3.57,7.19,7.77,9.97,12.09.23.35.29.74.06,1.13Z"/>
  <path class="st4" d="M467.67,64.41c-2.84-1.29-6.18-1.28-9.14-2.27-.8-.27-1.68-.37-2.53-.54-.34,2.09-1.53,3.98-2.25,5.99-.29.82-.58,1.63-.87,2.45,4.71-.84,9.43-1.67,13.89-3.19.3-.81.59-1.63.89-2.44Z"/>
  <path class="st2" d="M590.31.46c-1.07,2.51-2.25,4.99-3.71,7.38-.47.77-1,1.53-1.17,2.4,6.76-1.5,13.29-3.58,19.95-5.32,5-1.31,9.98-2.68,14.96-4.03-.56-.63-1.4-.45-2.15-.45-9.29,0-18.59.01-27.88.02Z"/>
  <path class="st4" d="M225.6,3.24c.3-.94.59-1.88.89-2.82-14.11,0-28.23-.02-42.34-.02-.59,0-1.17.06-1.76.09.24,1.62-.8,2.71-2.44,3.44-1.79.8-3.63,1.55-5.51,2.19-3.78,1.29-7.6,2.49-11.41,3.72-.63.2-1.28.38-1.94.54-3.22.76-5.02.13-6.35-2.34-.92-1.72-1.65-3.51-2.48-5.26-.38-.8-.8-1.59-1.2-2.39-5.3.02-10.6.04-15.9.06,1.42,4.31,2.81,8.63,4.27,12.93.28.84.51,1.67.57,2.54.12,1.65-.64,2.87-2.57,3.63-11.11,4.34-22.17,8.75-33.46,12.79-4.8,1.71-9.98,2.26-15.12,2.92-10.23,1.32-19.48-.9-27.93-5.29-5.09-2.64-9.78-5.78-14.69-8.66-.82-.48-1.41-1.37-2.72-1.16.44,2.79.15,5.6.19,8.39.05,3.35-.02,6.69-.04,10.04,1.16,1.57,3.12,2.36,5.04,3.12,2.99,1.19,5.94,2.41,8.61,4.05,1.57.96,3.41,1.56,5.25,2.1,3.59,1.06,7.26,1.93,10.75,3.21,2.86,1.05,5.84.38,8.71.1,6.23-.62,12.42-1.47,18.54-2.62,2.61-.49,5.11-1.19,7.25-2.48,4.28-2.58,9.06-4.41,14.05-5.86,5.93-1.73,11.54-3.95,17.11-6.28,1.13-.47,2.25-.99,3.43-1.35,2.6-.78,5.09.17,6.3,2.18,2.88,4.8,3.89,10,5.25,15.12,1.26,4.75,2.46,9.5,3.69,14.26,1.5-.03,2.79-.58,4.1-1.06,3.06-1.11,6.43-1.57,9.39-2.88-.09-.46-.16-.93-.27-1.39-2.25-9.62-5.02-19.15-7.7-28.7-.86-3.06.34-5.34,3.88-6.57,5.93-2.07,11.93-4.02,17.99-5.86,3.77-1.14,6.31-.43,8.81,2.07.92.92,1.85,1.85,2.57,2.86,6.12,8.58,12.56,17.01,19.08,25.39,2.16.27,3.77-.95,5.7-1.34,2.41-.49,4.86-.9,7.13-1.76-2.85-3.65-5.7-7.31-8.54-10.96-1.19-1.53-2.37-3.08-3.1-4.79-1.08-2.55-2.76-4.83-4.71-7.01-2.12-2.37-3.73-4.97-5.33-7.56-1.07-1.73-.59-2.98,1.52-3.66,5.33-1.71,10.01-4.29,14.81-6.71.82-.41,1.57-.97,2.63-.96Z"/>
  <path class="st4" d="M99.55,153.67c.41-4.03,1.3-8.03,1.39-12.08-18.59-2.47-36.63-6.92-55.15-9.64-.68-.1-1.34-.25-2.03-.11,0,2.92.01,5.84.02,8.76,1.17.01,2.35.04,3.52.04,2.32,0,4.52.4,6.34,1.57,1.46.94,3.02,1.05,4.7.7,3.36-.69,6.24-.39,8.1,2.28.37.54,1.06.64,1.72.79,5.74,1.31,11.36,2.97,17.26,3.81,2.14.3,4.16.84,6.14,1.54,2.6.92,5.25,1.73,8,2.34Z"/>
  <path class="st4" d="M451.34,783.48c-2.32.94-3.09,2.93-4.54,4.43-1.75,1.81-3.32,3.79-4.52,5.91,5.27.02,10.53.04,15.8.07,1.07,0,2.15-.11,3.19.17.19-.31.09-.6-.16-.85-3.26-3.25-6.52-6.49-9.78-9.74Z"/>
  <path class="st0" d="M49.68,236.68c2.37-.15,3.57-1.78,5.25-2.76,2.42-1.41,4.54-3.14,6.87-4.66.59-.39.11-.65.17-.97-5.02-5.86-10.03-11.72-16.3-16.81-.62-.51-.99-1.44-2.27-1.17.47,2,.19,4.02.21,6.03.05,3.81.01,7.61.01,11.42,2.24,2.87,4.46,5.76,6.06,8.91Z"/>
  <path class="st4" d="M462.34,47c3.2,1.17,6.51,2.03,10.01,2.4,1.19-4.5,2.4-8.99,3.57-13.49.44-1.68.89-3.36,1.19-5.05,1.25-6.92-.78-13.32-5.03-19.34-2.79-3.95-5.81-7.78-9.71-11.11-7.08,0-14.16.02-21.25.03-.07,1.25-1.56,2.21-1.17,3.56.3.4.57.81.91,1.18,6.8,7.26,13.1,14.78,19.38,22.32,2.42,2.91,3.55,6.02,3.35,9.5-.19,3.36-.67,6.68-1.27,10Z"/>
  <path class="st2" d="M568.37,15.54c1.44-1.87,1.79-4.09,3.05-6.02,1.4-2.15,2.4-4.43,3.28-6.75.24-.62.09-1.24.31-1.83-.03-.15-.04-.31-.04-.47-4.33-.03-8.67-.06-13-.09-7.38,4.34-14.01,9.29-19.36,15.27-1.92,2.15-3.24,4.56-4.84,6.85-3.33,4.76-4.89,9.98-6.53,15.2-.68,2.16-1.22,4.38-2.45,6.42-.09.15.14.42.23.63,3.16-1.21,5.84-3.03,8.91-4.35.04-.25.13-.46.53-.41,0,0-.02.02-.02.02-.25-.33-.12-.66.04-.98.65-1.6,1.58-3.13,2.23-4.72,1.78-4.35,4.29-8.37,7.64-12.07.87-.96,1.73-2,3.06-2.48,5.15-1.88,10.55-3.21,16.07-4.2.28-.05.59-.01.88-.02Z"/>
  <path class="st4" d="M770.25,760.98c-3.41.37-6.9.22-10.25.96-.66,7.84.34,15.62,1.54,23.38.44,2.87,1.05,5.72,1.58,8.58,3.73.25,7.49-.14,11.22.23.4-1.99-.38-3.89-.74-5.81-1.44-7.68-2.31-15.4-3.32-23.11-.18-1.4-.26-2.82-.03-4.23Z"/>
  <path class="st4" d="M159.3,72.41c1.52,6.23,2.58,12.51,3.5,18.81,1.04,7.08,1.59,14.19,1.98,21.32.23,4.21,1.26,8.39,1.86,12.59.34,2.33.57,4.68.78,7.02.21,2.38-1.06,3.99-3.86,4.99-6.58,2.36-13.46,3.91-20.55,4.83-8.24,1.07-16.51,1.96-24.9,1.38-.2.26-.55.52-.57.79-.27,4.04-1.21,8.03-1.29,12.07,7.69.34,15.3-.2,22.88-1.19,2.72-.35,5.47-.16,8.21-.52,5.76-.77,11.53-1.94,16.5-4.13,5.99-2.64,10.98-6.58,13.25-12.08,2.89-7.01,3.02-14.14,1.48-21.36-1.12-5.25-1.56-10.58-2.12-15.88-1.14-10.69-1.67-21.42-3.57-32.06-.1-.54-.08-1.09-.11-1.64-4.72,1.32-9.21,3.01-13.49,5.07Z"/>
  <path class="st4" d="M291.85,125.19c-1.48.11-1.64-.98-2.16-1.64-6.31-7.84-12.57-15.7-18.41-23.77-7.47-10.32-16.26-19.94-24.4-29.91-3.11-3.8-6.11-7.67-9.31-11.41-2.02-2.36-3.63-4.8-4.14-7.65-4.08.55-7.87,1.82-11.71,2.97-.3.09-.46.47-.69.72,1.76,2.72,3.98,5.21,6.14,7.72,10.28,11.96,19.02,24.65,28.27,37.11,9.8,13.2,19.92,26.24,29.91,39.35.4.53.89,1.02,1.34,1.53,1.67-1.39,1.68-3.3,2.04-4.97.69-3.2,1.74-6.3,3.05-9.36.09-.21.05-.46.07-.69Z"/>
  <path class="st4" d="M442.87,87.92c.5.59-.05,1.04-.37,1.49-9.06,12.94-16.54,26.5-24.45,39.9-6.02,10.19-13.71,19.54-22.6,28.28-.55.54-1.06,1.12-1.59,1.69.74,1.13,2.36,1.3,3.48,2.04,1.57,1.05,3.27,1.97,4.91,2.95,7.44-7.2,13.7-15.05,19.62-23.08,6.97-9.45,13.18-19.21,18.54-29.31,4.44-8.37,9.93-16.32,15.14-24.38.72-1.11,1.33-2.26,1.99-3.39-4.69,1.17-9.39,2.35-14.08,3.52-.15.18-.2.47-.61.35l.02-.05Z"/>
  <path class="st4" d="M294.81,151.07c2.3,3.18,4.6,6.35,6.89,9.53,2.18,3.04,5.08,5.52,8.74,7.46,4.4,2.33,8.84,4.61,13.55,6.54,2.97,1.22,5.71,2.72,8.23,4.47,2.07,1.44,4.24,2.77,6.85,3.56,1.68-1.25,3.31-2.53,4.7-4.01,1.15-1.23,2.36-2.43,3.65-3.57,2.21-1.94,4.06-4.09,5.9-6.24-5.03-1.31-10.14-2.43-15.11-3.91-14.73-4.39-26.12-11.97-34.13-22.75-1.59-2.15-3.57-4.13-4.61-6.53-1.54,5.15-3.5,10.23-4.67,15.45Z"/>
  <path class="st4" d="M351.57,183.92c15.44.82,28.64-3.57,40.51-11.06.3-.19.53-.45.8-.68-.65-1.45-2.61-1.7-3.88-2.58-1.67-1.17-3.93-1.81-5.94-2.68-.37.06-.79.05-1.11.18-4.8,2.02-9.93,2.81-15.31,2.73-1.76.91-2.83,2.3-3.99,3.62-3.32,3.75-7.47,6.93-11.09,10.47Z"/>
  <path class="st0" d="M71.6,258.56c.84-2.8.06-5.59-.29-8.35-.64-5.14-2.14-10.14-4.75-14.89-.74-.06-1.36.21-1.87.56-3.67,2.57-7.44,5.06-10.79,7.91-.55.47-.85,1.04-1.15,1.61.94,3.02,1.89,6.03,2.07,9.16l.15.48c5.33,1.79,10.95,2.74,16.62,3.51Z"/>
</svg>