<svg width="208" height="42" viewBox="0 0 208 42" fill="currentColor" xmlns="http://www.w3.org/2000/svg">
<g clip-path="url(#clip0_411_850)">
<path d="M123.151 35.6064C121.223 35.6064 119.66 37.0382 119.66 38.8032C119.66 40.5682 121.223 42 123.151 42C125.078 42 126.641 40.5682 126.641 38.8032C126.641 37.0382 125.078 35.6064 123.151 35.6064Z" fill="#FFB703"/>
<path d="M98.8493 35.6064C96.9214 35.6064 95.3584 37.0382 95.3584 38.8032C95.3584 40.5682 96.9214 42 98.8493 42C100.777 42 102.34 40.5682 102.34 38.8032C102.34 37.0382 100.777 35.6064 98.8493 35.6064Z" fill="#FFB703"/>
<path d="M49.0709 41.982V42H42.0891V41.982C42.0891 40.217 43.6521 38.7852 45.58 38.7852C47.5079 38.7852 49.0709 40.217 49.0709 41.982Z" fill="#FFB703"/>
<path d="M206.946 41.982V42H199.964V41.982C199.964 40.217 201.527 38.7852 203.455 38.7852C205.383 38.7852 206.946 40.217 206.946 41.982Z" fill="#FFB703"/>
<path d="M19.6032 26.8218L30.0894 17.0648C31.5128 15.741 33.2696 14.7639 35.2064 14.2146L38.7289 13.2196H21.0266L23.6707 13.9445C25.504 14.4443 26.0985 16.556 24.7517 17.8077L18.8239 23.3233H7.49533L7.53137 0.56282H0C0 0.56282 2.94138 2.17024 2.94138 5.4346V37.1417C2.94138 40.4061 0 42.0045 0 42.0045H10.4232C10.4232 42.0045 7.48182 40.4016 7.48182 37.1417L7.49533 27.2991H14.4501L21.1257 34.8094C25.1706 39.3615 32.3101 42.009 38.7244 42.009V40.4196C33.7831 40.4196 29.103 37.5289 25.9814 34.0214L19.5897 26.8398H19.5987L19.6032 26.8218Z" fill="currentColor"/>
<path d="M47.7828 28.1501L47.8369 4.23242H40.292C40.292 4.23242 43.2334 5.83984 43.2334 9.10421V28.1501C43.2334 31.4145 40.292 33.0129 40.292 33.0129H50.7242C50.7242 33.0129 47.7828 31.41 47.7828 28.1501Z" fill="currentColor"/>
<path d="M88.3765 36.5879V27.038C88.3765 21.896 85.9667 18.1769 82.9442 15.7275C79.9488 13.2781 76.2777 12.1029 71.1742 12.1029C59.0619 12.1029 57.3006 21.5808 57.3006 21.5808L59.2195 22.72C61.6834 18.6497 63.8906 16.0742 71.1742 16.0742C78.9128 16.0742 83.8271 20.1715 83.8271 27.0335V27.4252C81.2776 26.7903 72.6787 24.9668 65.4761 24.9668C59.6114 24.9668 54.6746 27.1235 54.6746 32.0043C54.6746 39.2039 63.8726 41.9955 71.1742 41.9955C76.5254 41.9955 80.7776 39.7172 83.8271 36.1692L84.3091 41.4597H92.3584C92.3584 41.4597 88.372 39.8433 88.372 36.5879H88.3765ZM71.1787 38.0242C64.7689 38.0242 59.224 36.2997 59.224 32.4996C59.224 25.3765 78.8542 28.6814 83.5073 29.5144C82.6559 33.5172 78.1695 38.0287 71.1742 38.0287L71.1787 38.0242Z" fill="currentColor"/>
<path d="M125.452 27.2496L125.475 17.4385C125.407 9.30682 122.214 2.76008 113.556 2.76008C107.926 2.76008 103.628 5.9389 101.129 10.6171L101.147 3.33191H93.6377C93.6377 3.33191 96.5791 4.93932 96.5791 8.20369V27.2496C96.5791 30.5139 93.6377 32.1124 93.6377 32.1124H104.038C104.038 32.1124 101.097 30.5094 101.097 27.2496L101.12 17.2989C101.12 11.6076 105.795 6.73135 113.561 6.73135C119.133 6.73135 120.939 11.414 120.939 16.8982V27.2496C120.939 30.5139 117.998 32.1169 117.998 32.1169H128.398C128.398 32.1169 125.457 30.5139 125.457 27.2541L125.452 27.2496Z" fill="currentColor"/>
<path d="M165.15 36.5789L165.14 0.00900515L157.65 0C157.65 0 160.587 1.61192 160.591 4.86278V20.0139C158.1 15.2997 153.722 12.0849 148.06 12.0849C139.88 12.0849 132.718 18.7802 132.718 27.038C132.718 35.2957 139.884 41.991 148.06 41.991C153.722 41.991 158.105 38.7807 160.591 34.062V36.5744C160.591 39.8388 157.65 41.4372 157.65 41.4372H168.091C168.091 41.4372 165.15 39.8253 165.15 36.5654V36.5789ZM148.06 38.0152C142.591 38.0152 137.267 32.9543 137.267 27.0425C137.267 21.1306 142.375 16.0652 148.06 16.0652C156.451 16.0652 160.591 21 160.591 27.0425C160.591 32.6437 156.501 38.0152 148.06 38.0152Z" fill="currentColor"/>
<path d="M204.014 28.7174V19.1675C204.014 14.0255 201.604 10.3064 198.581 7.85699C195.586 5.40759 191.915 4.23242 186.811 4.23242C174.699 4.23242 172.938 13.7103 172.938 13.7103L174.856 14.8495C177.32 10.7792 179.528 8.20369 186.811 8.20369C194.55 8.20369 199.464 12.301 199.464 19.163V19.5547C196.915 18.9198 188.316 17.0963 181.113 17.0963C175.248 17.0963 170.312 19.253 170.312 24.1338C170.312 31.3334 179.51 34.125 186.811 34.125C192.162 34.125 196.415 31.8467 199.464 28.2987L199.946 33.5892H207.995C207.995 33.5892 204.009 31.9728 204.009 28.7174H204.014ZM186.816 30.1537C180.406 30.1537 174.861 28.4292 174.861 24.6291C174.861 17.506 194.491 20.8109 199.144 21.6439C198.293 25.6467 193.807 30.1582 186.811 30.1582L186.816 30.1537Z" fill="currentColor"/>
</g>
<defs>
<clipPath id="clip0_411_850">
<rect width="208" height="42" fill="currentColor"/>
</clipPath>
</defs>
</svg>
