<svg width="1148" height="254" viewBox="0 0 1148 254" fill="none" xmlns="http://www.w3.org/2000/svg">
<path d="M679.67 214.635C669.029 214.635 660.402 223.262 660.402 233.903C660.402 244.544 669.029 253.172 679.67 253.172C690.311 253.172 698.939 244.545 698.939 233.903C698.939 223.261 690.312 214.635 679.67 214.635Z" fill="#FFB703"/>
<path d="M545.57 214.635C534.929 214.635 526.302 223.262 526.302 233.903C526.302 244.544 534.929 253.172 545.57 253.172C556.211 253.172 564.839 244.545 564.839 233.903C564.839 223.261 556.212 214.635 545.57 214.635Z" fill="#FFB703"/>
<path d="M270.887 253.074V253.172H232.353V253.074C232.353 242.435 240.976 233.803 251.615 233.803C262.254 233.803 270.886 242.435 270.886 253.074H270.887Z" fill="#FFB703"/>
<path d="M1142.09 253.074V253.172H1103.56V253.074C1103.56 242.435 1112.18 233.803 1122.82 233.803C1133.46 233.803 1142.09 242.435 1142.09 253.074Z" fill="#FFB703"/>
<path d="M108.288 161.683L166.157 102.869C174.009 94.9001 183.705 88.9961 194.391 85.6901L213.828 79.6831H116.141L130.737 84.0511C140.861 87.0761 144.123 99.7841 136.714 107.326L104.009 140.562H41.506L41.699 3.3501H0.109009C0.109009 3.3501 16.343 13.0471 16.343 32.7051V223.831C16.343 243.505 0.109009 253.157 0.109009 253.157H57.639C57.639 253.157 41.404 243.505 41.404 223.831L41.478 164.501H79.866L116.704 209.781C139.034 237.232 178.425 253.172 213.816 253.172V243.579C186.542 243.579 160.714 226.149 143.505 204.999L108.232 161.698H108.291V161.683H108.288Z" fill="#FEFAE0"/>
<path d="M263.784 169.692L264.079 25.5291H222.445C222.445 25.5291 238.679 35.2251 238.679 54.8841V169.692C238.694 189.366 222.459 199.018 222.459 199.018H280.017C280.017 199.018 263.784 189.366 263.784 169.692Z" fill="#FEFAE0"/>
<path d="M487.781 220.555V162.996C487.781 132.003 474.483 109.569 457.806 94.811C441.277 80.052 421.027 72.967 392.868 72.967C326.04 72.967 316.314 130.099 316.314 130.099L326.911 136.976C340.518 112.447 352.695 96.921 392.868 96.921C435.58 96.921 462.691 121.628 462.691 162.996V165.358C448.626 161.535 401.177 150.54 361.431 150.54C329.065 150.54 301.821 163.543 301.821 192.957C301.821 236.348 352.577 253.173 392.868 253.173C422.385 253.173 445.866 239.448 462.691 218.047L465.347 249.926H509.771C509.771 249.926 487.781 240.185 487.781 220.556V220.555ZM392.868 229.218C357.491 229.218 326.911 218.813 326.911 195.907C326.911 152.959 435.24 172.884 460.92 177.902C456.212 202.033 431.462 229.218 392.868 229.218Z" fill="#FEFAE0"/>
<path d="M692.389 164.255L692.523 105.116C692.139 56.103 674.532 16.637 626.758 16.637C595.676 16.637 571.973 35.809 558.174 63.998L558.262 20.091H516.82C516.82 20.091 533.054 29.787 533.054 49.446V164.254C533.054 183.928 516.82 193.58 516.82 193.58H574.201C574.201 193.58 557.967 183.928 557.967 164.254L558.085 104.274C558.085 69.96 583.883 40.575 626.743 40.575C657.486 40.575 667.463 68.809 667.463 101.853V164.239C667.478 183.928 651.243 193.579 651.243 193.579H708.625C708.625 193.579 692.39 183.927 692.39 164.253L692.389 164.255Z" fill="#FEFAE0"/>
<path d="M911.436 220.496L911.376 0.0440063L870.052 0C870.052 0 886.257 9.72599 886.286 29.326V120.669C872.546 92.244 848.371 72.879 817.127 72.879C771.995 72.879 732.47 113.23 732.47 163.026C732.47 212.822 772.009 253.173 817.127 253.173C848.371 253.173 872.546 233.81 886.286 205.384V220.526C886.286 240.2 870.052 249.852 870.052 249.852L927.67 249.867C927.67 249.867 911.436 240.126 911.436 220.497V220.496ZM817.128 229.159C786.946 229.159 757.561 198.653 757.561 163.025C757.561 128.475 785.75 96.862 817.128 96.862C863.441 96.862 886.287 126.616 886.287 163.025C886.287 196.794 863.706 229.159 817.128 229.159Z" fill="#FEFAE0"/>
<path d="M1125.9 173.117V115.558C1125.9 84.5651 1112.6 62.131 1095.93 47.373C1079.4 32.614 1059.15 25.5291 1030.99 25.5291C964.161 25.5291 954.435 82.6611 954.435 82.6611L965.032 89.5381C978.639 65.0091 990.816 49.4831 1030.99 49.4831C1073.7 49.4831 1100.81 74.1901 1100.81 115.558V117.92C1086.75 114.097 1039.3 103.102 999.552 103.102C967.186 103.102 939.942 116.105 939.942 145.519C939.942 188.91 990.698 205.735 1030.99 205.735C1060.51 205.735 1083.99 192.01 1100.81 170.609L1103.47 202.488H1147.89C1147.89 202.488 1125.9 192.746 1125.9 173.117ZM1030.99 181.78C995.612 181.78 965.032 171.375 965.032 148.469C965.032 105.521 1073.36 125.446 1099.04 130.464C1094.33 154.595 1069.58 181.78 1030.99 181.78Z" fill="#FEFAE0"/>
</svg>
